<svg width="32" height="32" viewBox="0 0 32 32" fill="none" xmlns="http://www.w3.org/2000/svg">
<path d="M13.9866 2.97309L7.3333 5.47975C5.79996 6.05309 4.54663 7.86642 4.54663 9.49309V19.3998C4.54663 20.9731 5.58663 23.0398 6.8533 23.9864L12.5866 28.2664C14.4666 29.6798 17.56 29.6798 19.44 28.2664L25.1733 23.9864C26.44 23.0398 27.48 20.9731 27.48 19.3998V9.49309C27.48 7.85309 26.2266 6.03975 24.6933 5.46642L18.04 2.97309C16.9066 2.55975 15.0933 2.55975 13.9866 2.97309Z" stroke="#4636FC" stroke-width="1.5" stroke-linecap="round" stroke-linejoin="round"/>
<path d="M16 16.6663C17.4728 16.6663 18.6667 15.4724 18.6667 13.9997C18.6667 12.5269 17.4728 11.333 16 11.333C14.5273 11.333 13.3334 12.5269 13.3334 13.9997C13.3334 15.4724 14.5273 16.6663 16 16.6663Z" stroke="#4636FC" stroke-width="1.5" stroke-miterlimit="10" stroke-linecap="round" stroke-linejoin="round"/>
<path d="M16 16.667V20.667" stroke="#4636FC" stroke-width="1.5" stroke-miterlimit="10" stroke-linecap="round" stroke-linejoin="round"/>
</svg>
