<svg width="25" height="25" viewBox="0 0 25 25" fill="none" xmlns="http://www.w3.org/2000/svg">
<path d="M12.5 1.5625C6.45996 1.5625 1.5625 6.45996 1.5625 12.5C1.5625 18.54 6.45996 23.4375 12.5 23.4375C18.54 23.4375 23.4375 18.54 23.4375 12.5C23.4375 6.45996 18.54 1.5625 12.5 1.5625ZM12.5 21.582C7.48535 21.582 3.41797 17.5146 3.41797 12.5C3.41797 7.48535 7.48535 3.41797 12.5 3.41797C17.5146 3.41797 21.582 7.48535 21.582 12.5C21.582 17.5146 17.5146 21.582 12.5 21.582Z" fill="#4636FC"/>
<path d="M15.2246 7.73193C14.4922 7.08984 13.5254 6.73828 12.5 6.73828C11.4746 6.73828 10.5078 7.09229 9.77539 7.73193C9.01367 8.39844 8.59375 9.29443 8.59375 10.2539V10.4395C8.59375 10.5469 8.68164 10.6348 8.78906 10.6348H9.96094C10.0684 10.6348 10.1563 10.5469 10.1563 10.4395V10.2539C10.1563 9.17725 11.2085 8.30078 12.5 8.30078C13.7915 8.30078 14.8438 9.17725 14.8438 10.2539C14.8438 11.0132 14.3066 11.709 13.4741 12.0288C12.9565 12.2266 12.5171 12.5732 12.2021 13.0273C11.8823 13.4912 11.7163 14.0479 11.7163 14.6118V15.1367C11.7163 15.2441 11.8042 15.332 11.9116 15.332H13.0835C13.1909 15.332 13.2788 15.2441 13.2788 15.1367V14.5825C13.2801 14.3455 13.3527 14.1144 13.4873 13.9193C13.6219 13.7242 13.8121 13.5741 14.0332 13.4888C15.4736 12.9346 16.4038 11.665 16.4038 10.2539C16.4063 9.29443 15.9863 8.39844 15.2246 7.73193ZM11.5234 17.8711C11.5234 18.1301 11.6263 18.3785 11.8095 18.5616C11.9926 18.7448 12.241 18.8477 12.5 18.8477C12.759 18.8477 13.0074 18.7448 13.1905 18.5616C13.3737 18.3785 13.4766 18.1301 13.4766 17.8711C13.4766 17.6121 13.3737 17.3637 13.1905 17.1806C13.0074 16.9974 12.759 16.8945 12.5 16.8945C12.241 16.8945 11.9926 16.9974 11.8095 17.1806C11.6263 17.3637 11.5234 17.6121 11.5234 17.8711Z" fill="#4636FC"/>
</svg>
