<svg width="182" height="48" viewBox="0 0 182 48" fill="none" xmlns="http://www.w3.org/2000/svg">
<rect width="182" height="48" rx="24" fill="#171717"/>
<path fill-rule="evenodd" clip-rule="evenodd" d="M79.606 14.4836C79.0347 14.0492 78.27 13.832 77.3119 13.832H75.7945V20H77.4726C78.3414 20 79.0585 19.7679 79.6238 19.3038C80.1891 18.8337 80.4718 18.0273 80.4718 16.8848C80.4718 15.7184 80.1832 14.918 79.606 14.4836ZM76.9727 19.1163V14.7157H77.5172C77.8624 14.7157 78.1569 14.7722 78.4009 14.8853C78.6509 14.9984 78.8502 15.2156 78.999 15.5369C79.1537 15.8523 79.2311 16.3016 79.2311 16.8848C79.2311 17.7238 79.0823 18.307 78.7848 18.6343C78.4872 18.9557 78.0766 19.1163 77.5529 19.1163H76.9727ZM85.0995 15.8136C84.7127 15.3673 84.1712 15.1442 83.4749 15.1442C83.0167 15.1442 82.618 15.2483 82.2788 15.4566C81.9456 15.6649 81.6897 15.9565 81.5112 16.3314C81.3326 16.7063 81.2434 17.1407 81.2434 17.6346C81.2434 18.4141 81.4397 19.0271 81.8325 19.4734C82.2252 19.9137 82.7697 20.1339 83.466 20.1339C83.9242 20.1339 84.3199 20.0298 84.6532 19.8215C84.9864 19.6132 85.2423 19.3216 85.4208 18.9467C85.5993 18.5659 85.6886 18.1285 85.6886 17.6346C85.6886 16.861 85.4922 16.254 85.0995 15.8136ZM82.4484 17.6346C82.4484 16.5515 82.7906 16.01 83.4749 16.01C83.8082 16.01 84.0581 16.1439 84.2247 16.4117C84.3973 16.6735 84.4836 17.0812 84.4836 17.6346C84.4836 18.188 84.3973 18.5986 84.2247 18.8664C84.0581 19.1342 83.8052 19.2681 83.466 19.2681C83.1268 19.2681 82.8709 19.1372 82.6983 18.8753C82.5317 18.6075 82.4484 18.194 82.4484 17.6346ZM91.4994 20L92.5259 15.2781H91.428L90.7228 19.161L89.973 15.2781H88.8037L87.9825 19.161L87.322 15.2781H86.1794L87.2238 20H88.6252L89.3571 16.2956L90.0712 20H91.4994ZM96.8139 15.528C96.5818 15.2721 96.2545 15.1442 95.832 15.1442C95.2607 15.1442 94.7817 15.3941 94.3949 15.894L94.3056 15.2781H93.3148V20H94.4573V16.7152C94.6061 16.4831 94.7579 16.3075 94.9126 16.1885C95.0732 16.0636 95.2518 16.0011 95.4481 16.0011C95.6386 16.0011 95.7814 16.0576 95.8766 16.1707C95.9778 16.2837 96.0283 16.4801 96.0283 16.7598V20H97.1709V16.5813C97.1709 16.129 97.0519 15.7779 96.8139 15.528ZM98.7603 19.8215C98.9685 20.0298 99.2542 20.1339 99.6172 20.1339C99.8849 20.1339 100.138 20.0804 100.376 19.9732L100.135 19.1699C100.046 19.1996 99.9564 19.2145 99.8671 19.2145C99.6886 19.2145 99.5993 19.1044 99.5993 18.8842V13.2607L98.4568 13.3857V18.9199C98.4568 19.3067 98.5579 19.6073 98.7603 19.8215ZM104.643 15.8136C104.256 15.3673 103.715 15.1442 103.018 15.1442C102.56 15.1442 102.161 15.2483 101.822 15.4566C101.489 15.6649 101.233 15.9565 101.055 16.3314C100.876 16.7063 100.787 17.1407 100.787 17.6346C100.787 18.4141 100.983 19.0271 101.376 19.4734C101.769 19.9137 102.313 20.1339 103.009 20.1339C103.468 20.1339 103.863 20.0298 104.197 19.8215C104.53 19.6132 104.786 19.3216 104.964 18.9467C105.143 18.5659 105.232 18.1285 105.232 17.6346C105.232 16.861 105.036 16.254 104.643 15.8136ZM101.992 17.6346C101.992 16.5515 102.334 16.01 103.018 16.01C103.352 16.01 103.602 16.1439 103.768 16.4117C103.941 16.6735 104.027 17.0812 104.027 17.6346C104.027 18.188 103.941 18.5986 103.768 18.8664C103.602 19.1342 103.349 19.2681 103.009 19.2681C102.67 19.2681 102.414 19.1372 102.242 18.8753C102.075 18.6075 101.992 18.194 101.992 17.6346ZM109.786 19.161C109.733 19.0717 109.706 18.9348 109.706 18.7504V16.7687C109.706 15.6857 109.102 15.1442 107.894 15.1442C107.341 15.1442 106.769 15.2572 106.18 15.4834L106.448 16.2599C106.936 16.0933 107.353 16.01 107.698 16.01C108.007 16.01 108.23 16.0725 108.367 16.1975C108.51 16.3165 108.581 16.5277 108.581 16.8312V17.099H107.992C107.302 17.099 106.769 17.2359 106.394 17.5096C106.025 17.7774 105.841 18.1672 105.841 18.6789C105.841 19.1133 105.978 19.4644 106.252 19.7322C106.525 20 106.897 20.1339 107.367 20.1339C107.665 20.1339 107.933 20.0774 108.171 19.9643C108.415 19.8453 108.617 19.6668 108.778 19.4287C108.867 19.6489 108.995 19.8126 109.162 19.9197C109.334 20.0268 109.554 20.0923 109.822 20.1161L110.063 19.3573C109.938 19.3097 109.846 19.2443 109.786 19.161ZM108.581 18.7236C108.361 19.1104 108.058 19.3038 107.671 19.3038C107.451 19.3038 107.284 19.2413 107.171 19.1163C107.058 18.9914 107.001 18.8158 107.001 18.5897C107.001 18.0422 107.37 17.7685 108.108 17.7685H108.581V18.7236ZM115.061 20V13.3857L113.918 13.2607V15.653C113.579 15.3138 113.183 15.1442 112.731 15.1442C112.35 15.1442 112.014 15.2513 111.722 15.4655C111.437 15.6797 111.217 15.9773 111.062 16.3581C110.907 16.733 110.83 17.1615 110.83 17.6435C110.83 18.4112 110.985 19.0181 111.294 19.4644C111.603 19.9108 112.047 20.1339 112.624 20.1339C112.916 20.1339 113.174 20.0685 113.401 19.9375C113.633 19.8066 113.823 19.6281 113.972 19.402L114.052 20H115.061ZM113.481 19.1253C113.326 19.2205 113.148 19.2681 112.945 19.2681C112.648 19.2681 112.422 19.1431 112.267 18.8932C112.112 18.6373 112.035 18.2178 112.035 17.6346C112.035 17.0871 112.121 16.6795 112.294 16.4117C112.472 16.138 112.713 16.0011 113.017 16.0011C113.201 16.0011 113.362 16.0427 113.499 16.126C113.642 16.2094 113.781 16.3343 113.918 16.501V18.6611C113.781 18.8694 113.636 19.0241 113.481 19.1253ZM121.583 18.5718L121.966 20H123.216L121.306 13.832H119.851L117.932 20H119.155L119.539 18.5718H121.583ZM120.556 14.7336L121.342 17.6792H119.771L120.556 14.7336ZM127.563 14.323C127.129 13.9957 126.516 13.832 125.724 13.832H123.904V20H125.082V17.8488H125.805C126.537 17.8488 127.123 17.6792 127.563 17.34C128.004 16.9949 128.224 16.4801 128.224 15.7958C128.224 15.1412 128.004 14.6503 127.563 14.323ZM126.671 16.7063C126.456 16.8788 126.138 16.9651 125.716 16.9651H125.082V14.6979H125.716C126.566 14.6979 126.992 15.0638 126.992 15.7958C126.992 16.2242 126.885 16.5277 126.671 16.7063ZM130.356 20V13.832H129.177V20H130.356ZM131.686 16.6259L133.819 13.832H132.542L130.409 16.7063L132.587 20H133.989L131.686 16.6259ZM80.2543 34.212L81.0036 37H83.4431L79.7141 24.9591H76.8738L73.1273 37H75.5146L76.2639 34.212H80.2543ZM79.7838 32.4694H76.7169L78.2504 26.7191L79.7838 32.4694ZM91.546 28.2699C91.0929 27.7704 90.454 27.5207 89.6292 27.5207C88.514 27.5207 87.5788 28.0086 86.8237 28.9844L86.6495 27.782H84.7153V37H86.9457V30.5875C87.2361 30.1345 87.5324 29.7918 87.8344 29.5594C88.1481 29.3155 88.4966 29.1935 88.8799 29.1935C89.2517 29.1935 89.5305 29.3038 89.7163 29.5246C89.9138 29.7453 90.0126 30.1286 90.0126 30.6746V37H92.243V30.3261C92.243 29.4432 92.0107 28.7579 91.546 28.2699ZM102.595 37V24.0879L100.364 23.8439V28.5139C99.702 27.8517 98.9295 27.5207 98.0466 27.5207C97.3031 27.5207 96.6468 27.7298 96.0775 28.148C95.5199 28.5662 95.0901 29.147 94.7881 29.8905C94.486 30.6224 94.335 31.4588 94.335 32.3997C94.335 33.8983 94.637 35.0832 95.2411 35.9545C95.8452 36.8258 96.7106 37.2614 97.8375 37.2614C98.4067 37.2614 98.912 37.1336 99.3535 36.878C99.8065 36.6225 100.178 36.274 100.469 35.8325L100.626 37H102.595ZM99.5103 35.2923C99.2083 35.4782 98.8598 35.5711 98.4648 35.5711C97.8839 35.5711 97.4425 35.3272 97.1405 34.8393C96.8384 34.3398 96.6874 33.5208 96.6874 32.3823C96.6874 31.3136 96.8559 30.5178 97.1927 29.995C97.5412 29.4607 98.0117 29.1935 98.6042 29.1935C98.9643 29.1935 99.278 29.2748 99.5452 29.4374C99.824 29.6001 100.097 29.844 100.364 30.1693V34.3862C100.097 34.7928 99.8123 35.0949 99.5103 35.2923ZM110.743 27.6601C110.464 27.5787 110.157 27.5381 109.82 27.5381C109.274 27.5381 108.792 27.7181 108.373 28.0783C107.955 28.4268 107.636 28.9321 107.415 29.5943L107.206 27.782H105.272V37H107.502V32.0861C107.688 31.2845 107.938 30.6921 108.251 30.3087C108.565 29.9137 108.995 29.7162 109.541 29.7162C109.808 29.7162 110.081 29.7511 110.36 29.8208L110.743 27.6601ZM118.537 28.8276C117.782 27.9563 116.725 27.5207 115.366 27.5207C114.471 27.5207 113.693 27.724 113.031 28.1305C112.38 28.5371 111.881 29.1064 111.532 29.8382C111.184 30.5701 111.01 31.4181 111.01 32.3823C111.01 33.9041 111.393 35.1007 112.16 35.9719C112.926 36.8316 113.989 37.2614 115.348 37.2614C116.243 37.2614 117.015 37.0581 117.666 36.6515C118.317 36.2449 118.816 35.6757 119.165 34.9438C119.513 34.2004 119.687 33.3465 119.687 32.3823C119.687 30.8721 119.304 29.6872 118.537 28.8276ZM113.362 32.3823C113.362 30.268 114.03 29.2109 115.366 29.2109C116.016 29.2109 116.504 29.4723 116.83 29.995C117.166 30.5062 117.335 31.3019 117.335 32.3823C117.335 33.4627 117.166 34.2642 116.83 34.787C116.504 35.3098 116.011 35.5711 115.348 35.5711C114.686 35.5711 114.187 35.3156 113.85 34.8044C113.525 34.2817 113.362 33.4743 113.362 32.3823ZM124.008 37V27.782H121.778V37H124.008ZM123.887 23.5128C123.631 23.2457 123.294 23.1121 122.876 23.1121C122.469 23.1121 122.132 23.2457 121.865 23.5128C121.61 23.7684 121.482 24.0879 121.482 24.4712C121.482 24.8546 121.61 25.1741 121.865 25.4296C122.132 25.6852 122.469 25.813 122.876 25.813C123.294 25.813 123.631 25.6852 123.887 25.4296C124.154 25.1741 124.287 24.8546 124.287 24.4712C124.287 24.0879 124.154 23.7684 123.887 23.5128ZM134.45 37V24.0879L132.22 23.8439V28.5139C131.558 27.8517 130.785 27.5207 129.902 27.5207C129.159 27.5207 128.502 27.7298 127.933 28.148C127.376 28.5662 126.946 29.147 126.644 29.8905C126.342 30.6224 126.191 31.4588 126.191 32.3997C126.191 33.8983 126.493 35.0832 127.097 35.9545C127.701 36.8258 128.566 37.2614 129.693 37.2614C130.262 37.2614 130.768 37.1336 131.209 36.878C131.662 36.6225 132.034 36.274 132.324 35.8325L132.481 37H134.45ZM131.366 35.2923C131.064 35.4782 130.715 35.5711 130.32 35.5711C129.74 35.5711 129.298 35.3272 128.996 34.8393C128.694 34.3398 128.543 33.5208 128.543 32.3823C128.543 31.3136 128.711 30.5178 129.048 29.995C129.397 29.4607 129.867 29.1935 130.46 29.1935C130.82 29.1935 131.134 29.2748 131.401 29.4374C131.68 29.6001 131.953 29.844 132.22 30.1693V34.3862C131.953 34.7928 131.668 35.0949 131.366 35.2923ZM57.6507 14.8193L56.8055 16.344C57.6101 16.7406 58.2898 17.3511 58.7703 18.1085C59.2507 18.8659 59.5133 19.741 59.5292 20.6378H48.8422C48.8581 19.741 49.1207 18.8659 49.6011 18.1085C50.0815 17.3511 50.7613 16.7406 51.5658 16.344L50.7206 14.8193C50.6987 14.7798 50.6934 14.7332 50.7059 14.6898C50.7183 14.6464 50.7475 14.6097 50.787 14.5878C50.8265 14.5659 50.8731 14.5606 50.9165 14.573C50.9599 14.5855 50.9966 14.6147 51.0185 14.6542L51.8731 16.1958C52.6022 15.8761 53.3896 15.7111 54.1857 15.7111C54.9817 15.7111 55.7692 15.8761 56.4983 16.1958L57.3528 14.6542C57.3747 14.6147 57.4114 14.5855 57.4548 14.573C57.4982 14.5606 57.5448 14.5659 57.5843 14.5878C57.6039 14.5986 57.6211 14.6132 57.635 14.6307C57.6489 14.6482 57.6593 14.6683 57.6654 14.6898C57.6716 14.7113 57.6735 14.7338 57.6709 14.756C57.6684 14.7782 57.6615 14.7998 57.6507 14.8193ZM51.4715 18.6071C51.5449 18.6562 51.6311 18.6824 51.7194 18.6824C51.8377 18.6822 51.9511 18.6352 52.0348 18.5515C52.1185 18.4678 52.1655 18.3544 52.1656 18.2361C52.1656 18.1478 52.1395 18.0616 52.0904 17.9882C52.0414 17.9148 51.9717 17.8576 51.8902 17.8238C51.8086 17.79 51.7189 17.7812 51.6323 17.7984C51.5458 17.8156 51.4663 17.8581 51.4038 17.9206C51.3414 17.983 51.2989 18.0625 51.2817 18.149C51.2645 18.2356 51.2733 18.3253 51.3071 18.4069C51.3409 18.4884 51.3981 18.5581 51.4715 18.6071ZM56.404 18.6071C56.4774 18.6562 56.5637 18.6824 56.6519 18.6824C56.7702 18.6822 56.8837 18.6352 56.9673 18.5515C57.051 18.4678 57.098 18.3544 57.0982 18.2361C57.0982 18.1478 57.072 18.0616 57.023 17.9882C56.9739 17.9148 56.9042 17.8576 56.8227 17.8238C56.7412 17.79 56.6514 17.7812 56.5649 17.7984C56.4783 17.8156 56.3988 17.8581 56.3364 17.9206C56.274 17.983 56.2315 18.0625 56.2142 18.149C56.197 18.2356 56.2059 18.3253 56.2396 18.4069C56.2734 18.4884 56.3306 18.5581 56.404 18.6071ZM49.2205 29.7193C48.9782 29.477 48.8421 29.1484 48.8421 28.8058V21.0605H59.5292V28.8058C59.5292 29.1484 59.3931 29.477 59.1509 29.7193C58.9086 29.9615 58.58 30.0976 58.2374 30.0976H57.3801V32.7401C57.3805 32.8976 57.3498 33.0538 57.2898 33.1995C57.2298 33.3452 57.1416 33.4776 57.0304 33.5892C56.9191 33.7008 56.7869 33.7893 56.6413 33.8497C56.4958 33.9101 56.3397 33.9412 56.1822 33.9412C56.0246 33.9412 55.8685 33.9101 55.723 33.8497C55.5774 33.7893 55.4452 33.7008 55.3339 33.5892C55.2227 33.4776 55.1345 33.3452 55.0745 33.1995C55.0145 33.0538 54.9838 32.8976 54.9842 32.7401V30.0976H53.3871V32.7401C53.3875 32.8976 53.3568 33.0538 53.2968 33.1995C53.2368 33.3452 53.1486 33.4776 53.0374 33.5892C52.9261 33.7008 52.7939 33.7893 52.6483 33.8497C52.5028 33.9101 52.3467 33.9412 52.1892 33.9412C52.0316 33.9412 51.8755 33.9101 51.73 33.8497C51.5844 33.7893 51.4522 33.7008 51.341 33.5892C51.2297 33.4776 51.1415 33.3452 51.0815 33.1995C51.0215 33.0538 50.9908 32.8976 50.9912 32.7401V30.0976H50.134C49.7913 30.0976 49.4628 29.9615 49.2205 29.7193ZM46.3513 21.2063C46.5758 20.9817 46.8803 20.8554 47.1979 20.855C47.5155 20.8554 47.82 20.9817 48.0446 21.2063C48.2692 21.4309 48.3955 21.7353 48.3958 22.0529V27.0442C48.3963 27.2018 48.3656 27.3579 48.3056 27.5036C48.2456 27.6493 48.1574 27.7818 48.0461 27.8933C47.9349 28.0049 47.8026 28.0934 47.6571 28.1538C47.5115 28.2143 47.3555 28.2453 47.1979 28.2453C47.0403 28.2453 46.8843 28.2143 46.7387 28.1538C46.5932 28.0934 46.461 28.0049 46.3497 27.8933C46.2384 27.7818 46.1503 27.6493 46.0903 27.5036C46.0302 27.3579 45.9996 27.2018 46 27.0442V22.0529C46.0004 21.7353 46.1267 21.4309 46.3513 21.2063ZM60.3267 21.2063C60.5513 20.9817 60.8558 20.8554 61.1734 20.855C61.491 20.8554 61.7955 20.9817 62.0201 21.2063C62.2446 21.4309 62.371 21.7353 62.3713 22.0529V27.0442C62.3717 27.2018 62.3411 27.3579 62.2811 27.5036C62.221 27.6493 62.1329 27.7818 62.0216 27.8933C61.9103 28.0049 61.7781 28.0934 61.6326 28.1538C61.487 28.2143 61.331 28.2453 61.1734 28.2453C61.0158 28.2453 60.8598 28.2143 60.7142 28.1538C60.5687 28.0934 60.4365 28.0049 60.3252 27.8933C60.2139 27.7818 60.1257 27.6493 60.0657 27.5036C60.0057 27.3579 59.975 27.2018 59.9755 27.0442V22.0529C59.9758 21.7353 60.1022 21.4309 60.3267 21.2063Z" fill="white"/>
</svg>
