<svg width="182" height="48" viewBox="0 0 182 48" fill="none" xmlns="http://www.w3.org/2000/svg">
<rect width="182" height="48" rx="24" fill="#171717"/>
<path d="M62.9195 24.2979C62.9296 23.4836 63.1381 22.6852 63.5257 21.9769C63.9133 21.2687 64.4673 20.6736 65.1362 20.2471C64.7113 19.6177 64.1507 19.0997 63.499 18.7342C62.8473 18.3688 62.1224 18.166 61.3818 18.142C59.8022 17.97 58.2709 19.1223 57.4659 19.1223C56.6454 19.1223 55.406 18.1591 54.0715 18.1876C53.2082 18.2165 52.367 18.4768 51.6296 18.9432C50.8922 19.4096 50.2839 20.0662 49.8639 20.8489C48.0446 24.1157 49.4017 28.9168 51.1444 31.5574C52.0163 32.8505 53.0353 34.2948 54.3686 34.2436C55.6734 34.1875 56.1607 33.3807 57.7357 33.3807C59.2961 33.3807 59.7533 34.2436 61.1137 34.211C62.5138 34.1875 63.3959 32.9122 64.2372 31.607C64.8637 30.6856 65.3457 29.6673 65.6655 28.5898C64.8521 28.233 64.158 27.6358 63.6697 26.8726C63.1813 26.1093 62.9204 25.2139 62.9195 24.2979Z" fill="white"/>
<path d="M60.3503 16.4055C61.1137 15.4551 61.4898 14.2334 61.3987 13C60.2325 13.127 59.1552 13.7052 58.3815 14.6191C58.0032 15.0657 57.7134 15.5851 57.5288 16.1478C57.3442 16.7105 57.2684 17.3055 57.3056 17.8986C57.8889 17.9048 58.4661 17.7737 58.9935 17.5151C59.5209 17.2564 59.9848 16.8771 60.3503 16.4055Z" fill="white"/>
<path d="M81.0743 29.4147H77.4233L76.5465 32.0999H75L78.4582 22.1655H80.0649L83.5232 32.0999H81.9504L81.0743 29.4147ZM77.8014 28.1757H80.6955L79.2688 23.8179H79.2289L77.8014 28.1757Z" fill="white"/>
<path d="M90.9916 28.4788C90.9916 30.7295 89.8301 32.1756 88.0772 32.1756C87.6332 32.1997 87.1916 32.0936 86.803 31.8695C86.4144 31.6454 86.0945 31.3123 85.88 30.9084H85.8468V34.4959H84.4133V24.8569H85.8009V26.0616H85.8272C86.0517 25.6596 86.377 25.3283 86.7685 25.1028C87.1601 24.8773 87.6032 24.7661 88.0509 24.7811C89.8233 24.7811 90.9916 26.2342 90.9916 28.4788ZM89.5182 28.4788C89.5182 27.0124 88.7876 26.0483 87.6727 26.0483C86.5775 26.0483 85.8408 27.0327 85.8408 28.4788C85.8408 29.9381 86.5775 30.9155 87.6727 30.9155C88.7876 30.9155 89.5182 29.9585 89.5182 28.4788Z" fill="white"/>
<path d="M98.6781 28.4788C98.6781 30.7295 97.5166 32.1756 95.7638 32.1756C95.3197 32.1997 94.8781 32.0936 94.4895 31.8695C94.1009 31.6454 93.781 31.3123 93.5665 30.9084H93.5333V34.4959H92.0999V24.8569H93.4874V26.0616H93.5137C93.7382 25.6596 94.0635 25.3283 94.455 25.1028C94.8466 24.8773 95.2897 24.7661 95.7374 24.7811C97.5098 24.7811 98.6781 26.2342 98.6781 28.4788ZM97.2048 28.4788C97.2048 27.0124 96.4741 26.0483 95.3593 26.0483C94.264 26.0483 93.5273 27.0327 93.5273 28.4788C93.5273 29.9381 94.264 30.9155 95.3593 30.9155C96.4741 30.9155 97.2048 29.9584 97.2048 28.4788H97.2048Z" fill="white"/>
<path d="M103.758 29.332C103.864 30.3172 104.787 30.964 106.048 30.964C107.256 30.964 108.126 30.3172 108.126 29.4289C108.126 28.6578 107.601 28.1961 106.36 27.8797L105.119 27.5695C103.36 27.1289 102.543 26.2758 102.543 24.8914C102.543 23.1773 103.983 22 106.028 22C108.053 22 109.44 23.1773 109.487 24.8914H108.04C107.953 23.9 107.163 23.3016 106.008 23.3016C104.853 23.3016 104.063 23.907 104.063 24.7883C104.063 25.4906 104.568 25.9039 105.803 26.2203L106.858 26.489C108.823 26.9711 109.64 27.7898 109.64 29.2429C109.64 31.1015 108.212 32.2656 105.942 32.2656C103.818 32.2656 102.383 31.1288 102.291 29.332L103.758 29.332Z" fill="white"/>
<path d="M112.733 23.1431V24.8571H114.061V26.0345H112.733V30.0274C112.733 30.6477 112.999 30.9368 113.583 30.9368C113.741 30.9339 113.898 30.9225 114.054 30.9024V32.0727C113.792 32.1236 113.525 32.1466 113.258 32.1414C111.844 32.1414 111.293 31.5907 111.293 30.186V26.0345H110.278V24.8571H111.293V23.1431H112.733Z" fill="white"/>
<path d="M114.83 28.479C114.83 26.2001 116.124 24.7681 118.142 24.7681C120.167 24.7681 121.455 26.2001 121.455 28.479C121.455 30.7641 120.174 32.1899 118.142 32.1899C116.112 32.1899 114.83 30.7641 114.83 28.479ZM119.995 28.479C119.995 26.9157 119.304 25.9931 118.142 25.9931C116.981 25.9931 116.291 26.9227 116.291 28.479C116.291 30.0485 116.981 30.9641 118.142 30.9641C119.304 30.9641 119.995 30.0485 119.995 28.479H119.995Z" fill="white"/>
<path d="M122.637 24.8573H124.004V26.0901H124.038C124.13 25.7051 124.348 25.3648 124.653 25.1265C124.959 24.8882 125.335 24.7664 125.717 24.7815C125.883 24.7809 126.047 24.7995 126.208 24.837V26.2276C126 26.1615 125.782 26.1312 125.564 26.1378C125.356 26.129 125.149 26.1671 124.956 26.2494C124.763 26.3317 124.59 26.4563 124.448 26.6146C124.306 26.7729 124.199 26.9612 124.134 27.1666C124.069 27.3719 124.047 27.5894 124.071 27.8042V32.1003H122.637L122.637 24.8573Z" fill="white"/>
<path d="M132.818 29.9727C132.625 31.2876 131.39 32.1899 129.811 32.1899C127.779 32.1899 126.518 30.7782 126.518 28.5134C126.518 26.2415 127.786 24.7681 129.75 24.7681C131.682 24.7681 132.897 26.1446 132.897 28.3407V28.8501H127.965V28.9399C127.942 29.2065 127.975 29.475 128.059 29.7277C128.144 29.9804 128.28 30.2114 128.458 30.4054C128.636 30.5995 128.851 30.7521 129.09 30.8531C129.329 30.9542 129.586 31.0013 129.844 30.9915C130.182 31.0244 130.522 30.943 130.813 30.7595C131.104 30.5759 131.329 30.3 131.456 29.9727L132.818 29.9727ZM127.972 27.811H131.463C131.476 27.5713 131.441 27.3315 131.36 27.1065C131.28 26.8816 131.155 26.6763 130.994 26.5037C130.833 26.3311 130.64 26.1948 130.426 26.1035C130.212 26.0121 129.982 25.9676 129.75 25.9727C129.517 25.9713 129.285 26.0178 129.069 26.1096C128.853 26.2014 128.657 26.3367 128.492 26.5076C128.326 26.6785 128.195 26.8816 128.106 27.1054C128.017 27.3291 127.971 27.5689 127.972 27.811V27.811Z" fill="white"/>
<path d="M76.708 14.177C77.436 14.177 78.0193 14.3473 78.458 14.688C78.9013 15.024 79.123 15.6493 79.123 16.564C79.123 17.4553 78.9013 18.0853 78.458 18.454C78.0193 18.818 77.485 19 76.855 19H75.7V14.177H76.708ZM76.365 14.709V18.475H76.904C77.352 18.475 77.716 18.3373 77.996 18.062C78.276 17.7867 78.416 17.2873 78.416 16.564C78.416 16.0553 78.3437 15.6657 78.199 15.395C78.0543 15.1197 77.87 14.9377 77.646 14.849C77.422 14.7557 77.1583 14.709 76.855 14.709H76.365ZM81.9269 14.093C82.3329 14.093 82.6875 14.191 82.9909 14.387C83.2989 14.5783 83.5369 14.8607 83.7049 15.234C83.8775 15.6073 83.9639 16.06 83.9639 16.592C83.9639 17.1147 83.8775 17.5627 83.7049 17.936C83.5369 18.3093 83.2989 18.594 82.9909 18.79C82.6875 18.986 82.3329 19.084 81.9269 19.084C81.5209 19.084 81.1639 18.9883 80.8559 18.797C80.5525 18.6057 80.3145 18.3233 80.1419 17.95C79.9739 17.5767 79.8899 17.1263 79.8899 16.599C79.8899 16.081 79.9739 15.633 80.1419 15.255C80.3145 14.877 80.5549 14.59 80.8629 14.394C81.1709 14.1933 81.5255 14.093 81.9269 14.093ZM81.9269 14.639C81.5069 14.639 81.1802 14.7977 80.9469 15.115C80.7135 15.4323 80.5969 15.927 80.5969 16.599C80.5969 17.2663 80.7135 17.7563 80.9469 18.069C81.1849 18.3817 81.5115 18.538 81.9269 18.538C82.8135 18.538 83.2569 17.8893 83.2569 16.592C83.2569 15.29 82.8135 14.639 81.9269 14.639ZM89.9586 14.177L88.9786 19H88.1246L87.2356 14.961L86.3396 19H85.5066L84.5266 14.177H85.1776L85.9546 18.419L86.8856 14.177H87.5926L88.5446 18.419L89.3496 14.177H89.9586ZM94.2158 19H93.3268L91.3668 14.905C91.3948 15.227 91.4158 15.5257 91.4298 15.801C91.4484 16.0717 91.4578 16.4007 91.4578 16.788V19H90.8348V14.177H91.7028L93.6838 18.279C93.6698 18.1577 93.6511 17.9453 93.6278 17.642C93.6044 17.3387 93.5928 17.061 93.5928 16.809V14.177H94.2158V19ZM96.2781 14.177V18.419H98.2591L98.1821 19H95.6131V14.177H96.2781ZM100.507 14.093C100.913 14.093 101.268 14.191 101.571 14.387C101.879 14.5783 102.117 14.8607 102.285 15.234C102.458 15.6073 102.544 16.06 102.544 16.592C102.544 17.1147 102.458 17.5627 102.285 17.936C102.117 18.3093 101.879 18.594 101.571 18.79C101.268 18.986 100.913 19.084 100.507 19.084C100.101 19.084 99.744 18.9883 99.436 18.797C99.1326 18.6057 98.8946 18.3233 98.722 17.95C98.554 17.5767 98.47 17.1263 98.47 16.599C98.47 16.081 98.554 15.633 98.722 15.255C98.8946 14.877 99.135 14.59 99.443 14.394C99.751 14.1933 100.106 14.093 100.507 14.093ZM100.507 14.639C100.087 14.639 99.7603 14.7977 99.527 15.115C99.2936 15.4323 99.177 15.927 99.177 16.599C99.177 17.2663 99.2936 17.7563 99.527 18.069C99.765 18.3817 100.092 18.538 100.507 18.538C101.394 18.538 101.837 17.8893 101.837 16.592C101.837 15.29 101.394 14.639 100.507 14.639ZM106.132 19L105.768 17.789H103.941L103.577 19H102.905L104.452 14.177H105.292L106.832 19H106.132ZM104.102 17.25H105.607L104.858 14.73L104.102 17.25ZM108.584 14.177C109.312 14.177 109.895 14.3473 110.334 14.688C110.777 15.024 110.999 15.6493 110.999 16.564C110.999 17.4553 110.777 18.0853 110.334 18.454C109.895 18.818 109.361 19 108.731 19H107.576V14.177H108.584ZM108.241 14.709V18.475H108.78C109.228 18.475 109.592 18.3373 109.872 18.062C110.152 17.7867 110.292 17.2873 110.292 16.564C110.292 16.0553 110.22 15.6657 110.075 15.395C109.93 15.1197 109.746 14.9377 109.522 14.849C109.298 14.7557 109.034 14.709 108.731 14.709H108.241ZM115.655 14.093C116.061 14.093 116.416 14.191 116.719 14.387C117.027 14.5783 117.265 14.8607 117.433 15.234C117.606 15.6073 117.692 16.06 117.692 16.592C117.692 17.1147 117.606 17.5627 117.433 17.936C117.265 18.3093 117.027 18.594 116.719 18.79C116.416 18.986 116.061 19.084 115.655 19.084C115.249 19.084 114.892 18.9883 114.584 18.797C114.281 18.6057 114.043 18.3233 113.87 17.95C113.702 17.5767 113.618 17.1263 113.618 16.599C113.618 16.081 113.702 15.633 113.87 15.255C114.043 14.877 114.283 14.59 114.591 14.394C114.899 14.1933 115.254 14.093 115.655 14.093ZM115.655 14.639C115.235 14.639 114.909 14.7977 114.675 15.115C114.442 15.4323 114.325 15.927 114.325 16.599C114.325 17.2663 114.442 17.7563 114.675 18.069C114.913 18.3817 115.24 18.538 115.655 18.538C116.542 18.538 116.985 17.8893 116.985 16.592C116.985 15.29 116.542 14.639 115.655 14.639ZM122.161 19H121.272L119.312 14.905C119.34 15.227 119.361 15.5257 119.375 15.801C119.394 16.0717 119.403 16.4007 119.403 16.788V19H118.78V14.177H119.648L121.629 18.279C121.615 18.1577 121.596 17.9453 121.573 17.642C121.55 17.3387 121.538 17.061 121.538 16.809V14.177H122.161V19Z" fill="white"/>
</svg>
