<svg width="41" height="45" viewBox="0 0 41 45" fill="none" xmlns="http://www.w3.org/2000/svg">
<rect width="41" height="45" rx="6" fill="#ECE4FB" fill-opacity="0.27"/>
<path d="M24.9718 34.549C24.673 34.5448 24.3787 34.4834 24.1106 34.3693C23.8425 34.2552 23.6074 34.0914 23.4226 33.8898L13.9376 23.4663C13.6486 23.1553 13.4944 22.7688 13.5012 22.3728C13.5079 21.9768 13.6753 21.5958 13.9747 21.2949L24.1504 11.2075C24.4958 10.8641 24.9874 10.6529 25.517 10.6203C26.0466 10.5876 26.5708 10.7362 26.9743 11.0334C27.3778 11.3306 27.6275 11.752 27.6685 12.205C27.7096 12.6579 27.5385 13.1052 27.1931 13.4486L18.0961 22.4599L26.5798 31.7717C26.8201 32.0269 26.9702 32.3351 27.0124 32.66C27.0547 32.9849 26.9872 33.3129 26.818 33.605C26.6489 33.8972 26.3851 34.1414 26.0579 34.3087C25.7307 34.476 25.3538 34.5594 24.9718 34.549Z" fill="black"/>
</svg>
