<svg width="32" height="32" viewBox="0 0 32 32" fill="none" xmlns="http://www.w3.org/2000/svg">
<rect width="32" height="32" rx="5" fill="#F2F3F4"/>
<path d="M16 26.5003C22.4433 26.5003 27.6666 21.277 27.6666 14.8337C27.6666 8.39034 22.4433 3.16699 16 3.16699C9.55666 3.16699 4.33331 8.39034 4.33331 14.8337C4.33331 21.277 9.55666 26.5003 16 26.5003Z" fill="#FFF59D"/>
<path d="M23.5833 14.8333C23.5833 10.3417 19.7333 6.78333 15.125 7.30833C11.625 7.71666 8.82498 10.5167 8.47498 14.0167C8.18331 16.7 9.29164 19.0917 11.1583 20.6083C11.975 21.3083 12.5 22.3 12.5 23.4083V23.5833H19.5V23.525C19.5 22.475 19.9666 21.425 20.7833 20.725C22.475 19.325 23.5833 17.225 23.5833 14.8333Z" fill="#FBC02D"/>
<path d="M19.85 13.7835L18.1 12.6168C17.925 12.5001 17.6333 12.5001 17.4583 12.6168L16 13.5501L14.6 12.6168C14.425 12.5001 14.1333 12.5001 13.9583 12.6168L12.2083 13.7835C12.0916 13.9001 11.975 14.0168 11.975 14.1918C11.975 14.3668 11.975 14.5418 12.0916 14.6585L14.3083 17.4001V23.5835H15.475V17.1668C15.475 17.0501 15.4166 16.9335 15.3583 16.8168L13.4333 14.4251L14.3083 13.8418L15.7083 14.7751C15.8833 14.8918 16.175 14.8918 16.35 14.7751L17.75 13.8418L18.625 14.4251L16.7 16.8168C16.6416 16.9335 16.5833 17.0501 16.5833 17.1668V23.5835H17.75V17.4001L19.9666 14.6585C20.0833 14.5418 20.1416 14.3668 20.0833 14.1918C20.025 14.0168 19.9666 13.8418 19.85 13.7835Z" fill="#FFF59D"/>
<path d="M16 29.417C16.9665 29.417 17.75 28.6335 17.75 27.667C17.75 26.7005 16.9665 25.917 16 25.917C15.0335 25.917 14.25 26.7005 14.25 27.667C14.25 28.6335 15.0335 29.417 16 29.417Z" fill="#5C6BC0"/>
<path d="M17.1667 28.25H14.8333C13.55 28.25 12.5 27.2 12.5 25.9167V23H19.5V25.9167C19.5 27.2 18.45 28.25 17.1667 28.25Z" fill="#9FA8DA"/>
<path d="M19.5 25.916L12.7333 26.8493C12.9083 27.2577 13.2583 27.666 13.6667 27.8993L19.15 27.141C19.3833 26.791 19.5 26.3827 19.5 25.916Z" fill="#5C6BC0"/>
<path d="M12.5 24.5747V25.7413L19.5 24.7497V23.583L12.5 24.5747Z" fill="#5C6BC0"/>
</svg>
