<svg width="31" height="25" viewBox="0 0 31 25" fill="none" xmlns="http://www.w3.org/2000/svg">
<rect width="31" height="25" rx="6" fill="#F2F3F4"/>
<path d="M22.9196 18.4L16.5196 5.6C16.1196 4.8 15.0196 4.8 14.6196 5.6L8.11963 18.4C7.71963 19.1 8.31963 20 9.11963 20H21.9196C22.7196 20 23.2196 19.1 22.9196 18.4ZM15.5196 18C14.7196 18 14.0196 17.3 14.0196 16.5C14.0196 15.7 14.6196 15 15.5196 15C16.4196 15 17.0196 15.7 17.0196 16.5C17.0196 17.4 16.3196 18 15.5196 18ZM16.5196 14H14.5196L14.0196 10.5C14.0196 10.2 14.2196 10 14.5196 10H16.5196C16.8196 10 17.0196 10.2 17.0196 10.5L16.5196 14Z" fill="#FDBA15"/>
</svg>
