<svg width="240" height="50" viewBox="0 0 240 50" fill="none" xmlns="http://www.w3.org/2000/svg">
<rect width="240" height="50" rx="6" fill="#24834A"/>
<path d="M26.74 25.02C26.74 23.66 27.0533 22.44 27.68 21.36C28.32 20.28 29.18 19.44 30.26 18.84C31.3533 18.2267 32.5467 17.92 33.84 17.92C35.32 17.92 36.6333 18.2867 37.78 19.02C38.94 19.74 39.78 20.7667 40.3 22.1H37.56C37.2 21.3667 36.7 20.82 36.06 20.46C35.42 20.1 34.68 19.92 33.84 19.92C32.92 19.92 32.1 20.1267 31.38 20.54C30.66 20.9533 30.0933 21.5467 29.68 22.32C29.28 23.0933 29.08 23.9933 29.08 25.02C29.08 26.0467 29.28 26.9467 29.68 27.72C30.0933 28.4933 30.66 29.0933 31.38 29.52C32.1 29.9333 32.92 30.14 33.84 30.14C34.68 30.14 35.42 29.96 36.06 29.6C36.7 29.24 37.2 28.6933 37.56 27.96H40.3C39.78 29.2933 38.94 30.32 37.78 31.04C36.6333 31.76 35.32 32.12 33.84 32.12C32.5333 32.12 31.34 31.82 30.26 31.22C29.18 30.6067 28.32 29.76 27.68 28.68C27.0533 27.6 26.74 26.38 26.74 25.02ZM47.7488 32.18C46.7088 32.18 45.7688 31.9467 44.9288 31.48C44.0888 31 43.4288 30.3333 42.9488 29.48C42.4688 28.6133 42.2288 27.6133 42.2288 26.48C42.2288 25.36 42.4754 24.3667 42.9688 23.5C43.4621 22.6333 44.1354 21.9667 44.9888 21.5C45.8421 21.0333 46.7954 20.8 47.8488 20.8C48.9021 20.8 49.8554 21.0333 50.7088 21.5C51.5621 21.9667 52.2354 22.6333 52.7288 23.5C53.2221 24.3667 53.4688 25.36 53.4688 26.48C53.4688 27.6 53.2154 28.5933 52.7088 29.46C52.2021 30.3267 51.5088 31 50.6288 31.48C49.7621 31.9467 48.8021 32.18 47.7488 32.18ZM47.7488 30.2C48.3354 30.2 48.8821 30.06 49.3888 29.78C49.9088 29.5 50.3288 29.08 50.6488 28.52C50.9688 27.96 51.1288 27.28 51.1288 26.48C51.1288 25.68 50.9754 25.0067 50.6688 24.46C50.3621 23.9 49.9554 23.48 49.4488 23.2C48.9421 22.92 48.3954 22.78 47.8088 22.78C47.2221 22.78 46.6754 22.92 46.1688 23.2C45.6754 23.48 45.2821 23.9 44.9888 24.46C44.6954 25.0067 44.5488 25.68 44.5488 26.48C44.5488 27.6667 44.8488 28.5867 45.4488 29.24C46.0621 29.88 46.8288 30.2 47.7488 30.2ZM58.0027 22.6C58.3893 22.0933 58.916 21.6667 59.5827 21.32C60.2493 20.9733 61.0027 20.8 61.8427 20.8C62.8027 20.8 63.676 21.04 64.4627 21.52C65.2627 21.9867 65.8893 22.6467 66.3427 23.5C66.796 24.3533 67.0227 25.3333 67.0227 26.44C67.0227 27.5467 66.796 28.54 66.3427 29.42C65.8893 30.2867 65.2627 30.9667 64.4627 31.46C63.676 31.94 62.8027 32.18 61.8427 32.18C61.0027 32.18 60.256 32.0133 59.6027 31.68C58.9493 31.3333 58.416 30.9067 58.0027 30.4V37.24H55.7227V20.98H58.0027V22.6ZM64.7027 26.44C64.7027 25.68 64.5427 25.0267 64.2227 24.48C63.916 23.92 63.5027 23.5 62.9827 23.22C62.476 22.9267 61.9293 22.78 61.3427 22.78C60.7693 22.78 60.2227 22.9267 59.7027 23.22C59.196 23.5133 58.7827 23.94 58.4627 24.5C58.156 25.06 58.0027 25.72 58.0027 26.48C58.0027 27.24 58.156 27.9067 58.4627 28.48C58.7827 29.04 59.196 29.4667 59.7027 29.76C60.2227 30.0533 60.7693 30.2 61.3427 30.2C61.9293 30.2 62.476 30.0533 62.9827 29.76C63.5027 29.4533 63.916 29.0133 64.2227 28.44C64.5427 27.8667 64.7027 27.2 64.7027 26.44ZM70.4373 19.52C70.024 19.52 69.6773 19.38 69.3973 19.1C69.1173 18.82 68.9773 18.4733 68.9773 18.06C68.9773 17.6467 69.1173 17.3 69.3973 17.02C69.6773 16.74 70.024 16.6 70.4373 16.6C70.8373 16.6 71.1773 16.74 71.4573 17.02C71.7373 17.3 71.8773 17.6467 71.8773 18.06C71.8773 18.4733 71.7373 18.82 71.4573 19.1C71.1773 19.38 70.8373 19.52 70.4373 19.52ZM71.5573 20.98V32H69.2773V20.98H71.5573ZM84.6508 26.22C84.6508 26.6333 84.6241 27.0067 84.5708 27.34H76.1508C76.2174 28.22 76.5441 28.9267 77.1308 29.46C77.7174 29.9933 78.4374 30.26 79.2908 30.26C80.5174 30.26 81.3841 29.7467 81.8908 28.72H84.3508C84.0174 29.7333 83.4108 30.5667 82.5308 31.22C81.6641 31.86 80.5841 32.18 79.2908 32.18C78.2374 32.18 77.2908 31.9467 76.4508 31.48C75.6241 31 74.9708 30.3333 74.4908 29.48C74.0241 28.6133 73.7908 27.6133 73.7908 26.48C73.7908 25.3467 74.0174 24.3533 74.4708 23.5C74.9374 22.6333 75.5841 21.9667 76.4108 21.5C77.2508 21.0333 78.2108 20.8 79.2908 20.8C80.3308 20.8 81.2574 21.0267 82.0708 21.48C82.8841 21.9333 83.5174 22.5733 83.9708 23.4C84.4241 24.2133 84.6508 25.1533 84.6508 26.22ZM82.2708 25.5C82.2574 24.66 81.9574 23.9867 81.3708 23.48C80.7841 22.9733 80.0574 22.72 79.1908 22.72C78.4041 22.72 77.7308 22.9733 77.1708 23.48C76.6108 23.9733 76.2774 24.6467 76.1708 25.5H82.2708ZM94.7498 22.84V28.94C94.7498 29.3533 94.8432 29.6533 95.0298 29.84C95.2298 30.0133 95.5632 30.1 96.0298 30.1H97.4298V32H95.6298C94.6032 32 93.8165 31.76 93.2698 31.28C92.7232 30.8 92.4498 30.02 92.4498 28.94V22.84H91.1498V20.98H92.4498V18.24H94.7498V20.98H97.4298V22.84H94.7498ZM104.311 32.18C103.271 32.18 102.331 31.9467 101.491 31.48C100.651 31 99.9913 30.3333 99.5113 29.48C99.0313 28.6133 98.7913 27.6133 98.7913 26.48C98.7913 25.36 99.0379 24.3667 99.5313 23.5C100.025 22.6333 100.698 21.9667 101.551 21.5C102.405 21.0333 103.358 20.8 104.411 20.8C105.465 20.8 106.418 21.0333 107.271 21.5C108.125 21.9667 108.798 22.6333 109.291 23.5C109.785 24.3667 110.031 25.36 110.031 26.48C110.031 27.6 109.778 28.5933 109.271 29.46C108.765 30.3267 108.071 31 107.191 31.48C106.325 31.9467 105.365 32.18 104.311 32.18ZM104.311 30.2C104.898 30.2 105.445 30.06 105.951 29.78C106.471 29.5 106.891 29.08 107.211 28.52C107.531 27.96 107.691 27.28 107.691 26.48C107.691 25.68 107.538 25.0067 107.231 24.46C106.925 23.9 106.518 23.48 106.011 23.2C105.505 22.92 104.958 22.78 104.371 22.78C103.785 22.78 103.238 22.92 102.731 23.2C102.238 23.48 101.845 23.9 101.551 24.46C101.258 25.0067 101.111 25.68 101.111 26.48C101.111 27.6667 101.411 28.5867 102.011 29.24C102.625 29.88 103.391 30.2 104.311 30.2ZM116.72 26.48C116.72 25.3467 116.947 24.3533 117.4 23.5C117.867 22.6333 118.507 21.9667 119.32 21.5C120.134 21.0333 121.067 20.8 122.12 20.8C123.454 20.8 124.554 21.12 125.42 21.76C126.3 22.3867 126.894 23.2867 127.2 24.46H124.74C124.54 23.9133 124.22 23.4867 123.78 23.18C123.34 22.8733 122.787 22.72 122.12 22.72C121.187 22.72 120.44 23.0533 119.88 23.72C119.334 24.3733 119.06 25.2933 119.06 26.48C119.06 27.6667 119.334 28.5933 119.88 29.26C120.44 29.9267 121.187 30.26 122.12 30.26C123.44 30.26 124.314 29.68 124.74 28.52H127.2C126.88 29.64 126.28 30.5333 125.4 31.2C124.52 31.8533 123.427 32.18 122.12 32.18C121.067 32.18 120.134 31.9467 119.32 31.48C118.507 31 117.867 30.3333 117.4 29.48C116.947 28.6133 116.72 27.6133 116.72 26.48ZM131.753 17.2V32H129.473V17.2H131.753ZM135.906 19.52C135.493 19.52 135.146 19.38 134.866 19.1C134.586 18.82 134.446 18.4733 134.446 18.06C134.446 17.6467 134.586 17.3 134.866 17.02C135.146 16.74 135.493 16.6 135.906 16.6C136.306 16.6 136.646 16.74 136.926 17.02C137.206 17.3 137.346 17.6467 137.346 18.06C137.346 18.4733 137.206 18.82 136.926 19.1C136.646 19.38 136.306 19.52 135.906 19.52ZM137.026 20.98V32H134.746V20.98H137.026ZM142.3 22.6C142.686 22.0933 143.213 21.6667 143.88 21.32C144.546 20.9733 145.3 20.8 146.14 20.8C147.1 20.8 147.973 21.04 148.76 21.52C149.56 21.9867 150.186 22.6467 150.64 23.5C151.093 24.3533 151.32 25.3333 151.32 26.44C151.32 27.5467 151.093 28.54 150.64 29.42C150.186 30.2867 149.56 30.9667 148.76 31.46C147.973 31.94 147.1 32.18 146.14 32.18C145.3 32.18 144.553 32.0133 143.9 31.68C143.246 31.3333 142.713 30.9067 142.3 30.4V37.24H140.02V20.98H142.3V22.6ZM149 26.44C149 25.68 148.84 25.0267 148.52 24.48C148.213 23.92 147.8 23.5 147.28 23.22C146.773 22.9267 146.226 22.78 145.64 22.78C145.066 22.78 144.52 22.9267 144 23.22C143.493 23.5133 143.08 23.94 142.76 24.5C142.453 25.06 142.3 25.72 142.3 26.48C142.3 27.24 142.453 27.9067 142.76 28.48C143.08 29.04 143.493 29.4667 144 29.76C144.52 30.0533 145.066 30.2 145.64 30.2C146.226 30.2 146.773 30.0533 147.28 29.76C147.8 29.4533 148.213 29.0133 148.52 28.44C148.84 27.8667 149 27.2 149 26.44ZM155.854 22.62C156.241 22.0867 156.768 21.6533 157.434 21.32C158.114 20.9733 158.868 20.8 159.694 20.8C160.668 20.8 161.548 21.0333 162.334 21.5C163.121 21.9667 163.741 22.6333 164.194 23.5C164.648 24.3533 164.874 25.3333 164.874 26.44C164.874 27.5467 164.648 28.54 164.194 29.42C163.741 30.2867 163.114 30.9667 162.314 31.46C161.528 31.94 160.654 32.18 159.694 32.18C158.841 32.18 158.081 32.0133 157.414 31.68C156.761 31.3467 156.241 30.92 155.854 30.4V32H153.574V17.2H155.854V22.62ZM162.554 26.44C162.554 25.68 162.394 25.0267 162.074 24.48C161.768 23.92 161.354 23.5 160.834 23.22C160.328 22.9267 159.781 22.78 159.194 22.78C158.621 22.78 158.074 22.9267 157.554 23.22C157.048 23.5133 156.634 23.94 156.314 24.5C156.008 25.06 155.854 25.72 155.854 26.48C155.854 27.24 156.008 27.9067 156.314 28.48C156.634 29.04 157.048 29.4667 157.554 29.76C158.074 30.0533 158.621 30.2 159.194 30.2C159.781 30.2 160.328 30.0533 160.834 29.76C161.354 29.4533 161.768 29.0133 162.074 28.44C162.394 27.8667 162.554 27.2 162.554 26.44ZM171.909 32.18C170.869 32.18 169.929 31.9467 169.089 31.48C168.249 31 167.589 30.3333 167.109 29.48C166.629 28.6133 166.389 27.6133 166.389 26.48C166.389 25.36 166.636 24.3667 167.129 23.5C167.622 22.6333 168.296 21.9667 169.149 21.5C170.002 21.0333 170.956 20.8 172.009 20.8C173.062 20.8 174.016 21.0333 174.869 21.5C175.722 21.9667 176.396 22.6333 176.889 23.5C177.382 24.3667 177.629 25.36 177.629 26.48C177.629 27.6 177.376 28.5933 176.869 29.46C176.362 30.3267 175.669 31 174.789 31.48C173.922 31.9467 172.962 32.18 171.909 32.18ZM171.909 30.2C172.496 30.2 173.042 30.06 173.549 29.78C174.069 29.5 174.489 29.08 174.809 28.52C175.129 27.96 175.289 27.28 175.289 26.48C175.289 25.68 175.136 25.0067 174.829 24.46C174.522 23.9 174.116 23.48 173.609 23.2C173.102 22.92 172.556 22.78 171.969 22.78C171.382 22.78 170.836 22.92 170.329 23.2C169.836 23.48 169.442 23.9 169.149 24.46C168.856 25.0067 168.709 25.68 168.709 26.48C168.709 27.6667 169.009 28.5867 169.609 29.24C170.222 29.88 170.989 30.2 171.909 30.2ZM179.123 26.44C179.123 25.3333 179.349 24.3533 179.803 23.5C180.269 22.6467 180.896 21.9867 181.683 21.52C182.483 21.04 183.363 20.8 184.323 20.8C185.189 20.8 185.943 20.9733 186.583 21.32C187.236 21.6533 187.756 22.0733 188.143 22.58V20.98H190.443V32H188.143V30.36C187.756 30.88 187.229 31.3133 186.563 31.66C185.896 32.0067 185.136 32.18 184.283 32.18C183.336 32.18 182.469 31.94 181.683 31.46C180.896 30.9667 180.269 30.2867 179.803 29.42C179.349 28.54 179.123 27.5467 179.123 26.44ZM188.143 26.48C188.143 25.72 187.983 25.06 187.663 24.5C187.356 23.94 186.949 23.5133 186.443 23.22C185.936 22.9267 185.389 22.78 184.803 22.78C184.216 22.78 183.669 22.9267 183.163 23.22C182.656 23.5 182.243 23.92 181.923 24.48C181.616 25.0267 181.463 25.68 181.463 26.44C181.463 27.2 181.616 27.8667 181.923 28.44C182.243 29.0133 182.656 29.4533 183.163 29.76C183.683 30.0533 184.229 30.2 184.803 30.2C185.389 30.2 185.936 30.0533 186.443 29.76C186.949 29.4667 187.356 29.04 187.663 28.48C187.983 27.9067 188.143 27.24 188.143 26.48ZM195.718 22.58C196.051 22.02 196.491 21.5867 197.038 21.28C197.598 20.96 198.258 20.8 199.018 20.8V23.16H198.438C197.544 23.16 196.864 23.3867 196.398 23.84C195.944 24.2933 195.718 25.08 195.718 26.2V32H193.438V20.98H195.718V22.58ZM200.353 26.44C200.353 25.3333 200.58 24.3533 201.033 23.5C201.5 22.6467 202.127 21.9867 202.913 21.52C203.713 21.04 204.6 20.8 205.573 20.8C206.293 20.8 207 20.96 207.693 21.28C208.4 21.5867 208.96 22 209.373 22.52V17.2H211.673V32H209.373V30.34C209 30.8733 208.48 31.3133 207.813 31.66C207.16 32.0067 206.407 32.18 205.553 32.18C204.593 32.18 203.713 31.94 202.913 31.46C202.127 30.9667 201.5 30.2867 201.033 29.42C200.58 28.54 200.353 27.5467 200.353 26.44ZM209.373 26.48C209.373 25.72 209.213 25.06 208.893 24.5C208.587 23.94 208.18 23.5133 207.673 23.22C207.167 22.9267 206.62 22.78 206.033 22.78C205.447 22.78 204.9 22.9267 204.393 23.22C203.887 23.5 203.473 23.92 203.153 24.48C202.847 25.0267 202.693 25.68 202.693 26.44C202.693 27.2 202.847 27.8667 203.153 28.44C203.473 29.0133 203.887 29.4533 204.393 29.76C204.913 30.0533 205.46 30.2 206.033 30.2C206.62 30.2 207.167 30.0533 207.673 29.76C208.18 29.4667 208.587 29.04 208.893 28.48C209.213 27.9067 209.373 27.24 209.373 26.48Z" fill="white"/>
</svg>
