<svg width="80" height="36" viewBox="0 0 80 36" fill="none" xmlns="http://www.w3.org/2000/svg">
<path d="M0 8C0 3.58172 3.58172 0 8 0H72C76.4183 0 80 3.58172 80 8V28C80 32.4183 76.4183 36 72 36H8C3.58172 36 0 32.4183 0 28V8Z" fill="#353A51" fill-opacity="0.53"/>
<path d="M30.9137 15.7717C30.5781 13.348 28.7138 11.9418 26.2955 11.9418C23.4457 11.9418 21.299 14.0192 21.299 17.5455C21.299 21.0664 23.419 23.1491 26.2955 23.1491C28.8896 23.1491 30.6101 21.4712 30.9137 19.3885L28.9215 19.3778C28.6712 20.6562 27.6271 21.3754 26.3221 21.3754C24.5536 21.3754 23.2859 20.049 23.2859 17.5455C23.2859 15.0845 24.543 13.7156 26.3274 13.7156C27.6538 13.7156 28.6925 14.4666 28.9215 15.7717H30.9137ZM36.2071 23.1598C38.6041 23.1598 40.1276 21.4712 40.1276 18.9411C40.1276 16.4055 38.6041 14.7116 36.2071 14.7116C33.8101 14.7116 32.2867 16.4055 32.2867 18.9411C32.2867 21.4712 33.8101 23.1598 36.2071 23.1598ZM36.2178 21.6151C34.8914 21.6151 34.2416 20.4325 34.2416 18.9357C34.2416 17.4389 34.8914 16.2404 36.2178 16.2404C37.5228 16.2404 38.1727 17.4389 38.1727 18.9357C38.1727 20.4325 37.5228 21.6151 36.2178 21.6151ZM41.7642 26.0682H43.6925V21.7109H43.7724C44.076 22.3075 44.7099 23.1438 46.1161 23.1438C48.0444 23.1438 49.4879 21.6151 49.4879 18.9197C49.4879 16.1925 48.0018 14.7116 46.1108 14.7116C44.6673 14.7116 44.0653 15.5799 43.7724 16.1712H43.6605V14.8182H41.7642V26.0682ZM43.6552 18.9091C43.6552 17.3217 44.337 16.2937 45.5781 16.2937C46.8619 16.2937 47.5224 17.3857 47.5224 18.9091C47.5224 20.4432 46.8512 21.5618 45.5781 21.5618C44.3477 21.5618 43.6552 20.4964 43.6552 18.9091ZM52.0594 26.0682C53.5615 26.0682 54.4298 25.2958 54.8932 23.9908L58.1798 14.8288L56.1183 14.8182L54.2274 20.9972H54.1421L52.2565 14.8182H50.211L53.178 23.1705L53.0129 23.6126C52.656 24.5447 52.0914 24.6087 51.2497 24.3636L50.8023 25.8658C51.0633 25.9723 51.532 26.0682 52.0594 26.0682Z" fill="#1138EC"/>
</svg>
