<svg width="41" height="45" viewBox="0 0 41 45" fill="none" xmlns="http://www.w3.org/2000/svg">
<rect width="41" height="45" rx="6" fill="#ECE4FB" fill-opacity="0.27"/>
<path d="M24.9723 34.549C24.6734 34.5448 24.3792 34.4834 24.1111 34.3693C23.843 34.2552 23.6079 34.0914 23.423 33.8898L13.938 23.4663C13.6491 23.1553 13.4948 22.7688 13.5016 22.3728C13.5084 21.9768 13.6757 21.5958 13.9751 21.2949L24.1508 11.2075C24.4963 10.8641 24.9879 10.6529 25.5175 10.6203C26.047 10.5876 26.5712 10.7362 26.9747 11.0334C27.3782 11.3306 27.6279 11.752 27.669 12.205C27.71 12.6579 27.539 13.1052 27.1935 13.4486L18.0966 22.4599L26.5802 31.7717C26.8205 32.0269 26.9707 32.3351 27.0129 32.66C27.0551 32.9849 26.9876 33.3129 26.8185 33.605C26.6493 33.8972 26.3855 34.1414 26.0584 34.3087C25.7312 34.476 25.3543 34.5594 24.9723 34.549Z" fill="#DDDDDD"/>
</svg>
