<svg width="46" height="42" viewBox="0 0 46 42" fill="none" xmlns="http://www.w3.org/2000/svg">
<path d="M25.0625 10.6875L20.3375 15.4125L18.5375 12.7125L14.9375 16.3125" stroke="#848484" stroke-width="1.5" stroke-linecap="round" stroke-linejoin="round"/>
<path d="M22.8125 10.6875H25.0625V12.9375" stroke="#848484" stroke-width="1.5" stroke-linecap="round" stroke-linejoin="round"/>
<path d="M16.625 24.75H23.375C29 24.75 31.25 22.5 31.25 16.875V10.125C31.25 4.5 29 2.25 23.375 2.25H16.625C11 2.25 8.75 4.5 8.75 10.125V16.875C8.75 22.5 11 24.75 16.625 24.75Z" stroke="#848484" stroke-width="1.5" stroke-linecap="round" stroke-linejoin="round"/>
<path d="M6.21875 32.5653C6.1733 32.1619 5.9858 31.8494 5.65625 31.6278C5.3267 31.4034 4.91193 31.2912 4.41193 31.2912C4.05398 31.2912 3.74432 31.348 3.48295 31.4616C3.22159 31.5724 3.01847 31.7259 2.87358 31.9219C2.73153 32.1151 2.66051 32.3352 2.66051 32.5824C2.66051 32.7898 2.70881 32.9687 2.8054 33.1193C2.90483 33.2699 3.03409 33.3963 3.19318 33.4986C3.35511 33.598 3.52841 33.6818 3.71307 33.75C3.89773 33.8153 4.07528 33.8693 4.24574 33.9119L5.09801 34.1335C5.37642 34.2017 5.66193 34.294 5.95455 34.4105C6.24716 34.527 6.51847 34.6804 6.76847 34.8707C7.01847 35.0611 7.22017 35.2969 7.37358 35.5781C7.52983 35.8594 7.60795 36.196 7.60795 36.5881C7.60795 37.0824 7.48011 37.5213 7.22443 37.9048C6.97159 38.2884 6.60369 38.5909 6.12074 38.8125C5.64063 39.0341 5.05966 39.1449 4.37784 39.1449C3.72443 39.1449 3.15909 39.0412 2.68182 38.8338C2.20455 38.6264 1.83097 38.3324 1.56108 37.9517C1.29119 37.5682 1.14205 37.1136 1.11364 36.5881H2.43466C2.46023 36.9034 2.5625 37.1662 2.74148 37.3764C2.9233 37.5838 3.15483 37.7386 3.43608 37.8409C3.72017 37.9403 4.03125 37.9901 4.36932 37.9901C4.74148 37.9901 5.07244 37.9318 5.36222 37.8153C5.65483 37.696 5.88494 37.5312 6.05256 37.321C6.22017 37.108 6.30398 36.8594 6.30398 36.5753C6.30398 36.3168 6.23011 36.1051 6.08239 35.9403C5.9375 35.7756 5.74006 35.6392 5.49006 35.5312C5.2429 35.4233 4.96307 35.3281 4.65057 35.2457L3.61932 34.9645C2.92045 34.7741 2.36648 34.4943 1.95739 34.125C1.55114 33.7557 1.34801 33.267 1.34801 32.6591C1.34801 32.1562 1.48438 31.7173 1.7571 31.3423C2.02983 30.9673 2.39915 30.6761 2.86506 30.4688C3.33097 30.2585 3.85653 30.1534 4.44176 30.1534C5.03267 30.1534 5.55398 30.2571 6.00568 30.4645C6.46023 30.6719 6.81818 30.9574 7.07955 31.321C7.34091 31.6818 7.47727 32.0966 7.48864 32.5653H6.21875ZM9.07919 39V32.4545H10.3022V33.5199H10.3832C10.5195 33.1591 10.7425 32.8778 11.0522 32.6761C11.3619 32.4716 11.7326 32.3693 12.1644 32.3693C12.6019 32.3693 12.9684 32.4716 13.2638 32.6761C13.5621 32.8807 13.7823 33.1619 13.9244 33.5199H13.9925C14.1488 33.1705 14.3974 32.892 14.7383 32.6847C15.0792 32.4744 15.4854 32.3693 15.957 32.3693C16.5508 32.3693 17.0352 32.5554 17.4102 32.9276C17.788 33.2997 17.9769 33.8608 17.9769 34.6108V39H16.7028V34.7301C16.7028 34.2869 16.582 33.9659 16.3406 33.767C16.0991 33.5682 15.8107 33.4688 15.4755 33.4688C15.0607 33.4688 14.7383 33.5966 14.5082 33.8523C14.2781 34.1051 14.163 34.4304 14.163 34.8281V39H12.8931V34.6491C12.8931 34.294 12.7823 34.0085 12.5607 33.7926C12.3391 33.5767 12.0508 33.4688 11.6957 33.4688C11.4542 33.4688 11.2312 33.5327 11.0266 33.6605C10.8249 33.7855 10.6616 33.9602 10.5366 34.1847C10.4144 34.4091 10.3533 34.669 10.3533 34.9645V39H9.07919ZM21.5895 39.1449C21.1747 39.1449 20.7997 39.0682 20.4645 38.9148C20.1293 38.7585 19.8636 38.5327 19.6676 38.2372C19.4744 37.9418 19.3778 37.5795 19.3778 37.1506C19.3778 36.7812 19.4489 36.4773 19.5909 36.2386C19.733 36 19.9247 35.8111 20.1662 35.6719C20.4077 35.5327 20.6776 35.4276 20.9759 35.3565C21.2741 35.2855 21.5781 35.2315 21.8878 35.1946C22.2798 35.1491 22.598 35.1122 22.8423 35.0838C23.0866 35.0526 23.2642 35.0028 23.375 34.9347C23.4858 34.8665 23.5412 34.7557 23.5412 34.6023V34.5724C23.5412 34.2003 23.4361 33.9119 23.2259 33.7074C23.0185 33.5028 22.7088 33.4006 22.2969 33.4006C21.8679 33.4006 21.5298 33.4957 21.2827 33.6861C21.0384 33.8736 20.8693 34.0824 20.7756 34.3125L19.5781 34.0398C19.7202 33.642 19.9276 33.321 20.2003 33.0767C20.4759 32.8295 20.7926 32.6506 21.1506 32.5398C21.5085 32.4261 21.8849 32.3693 22.2798 32.3693C22.5412 32.3693 22.8182 32.4006 23.1108 32.4631C23.4063 32.5227 23.6818 32.6335 23.9375 32.7955C24.196 32.9574 24.4077 33.1889 24.5724 33.4901C24.7372 33.7884 24.8196 34.1761 24.8196 34.6534V39H23.5753V38.1051H23.5241C23.4418 38.2699 23.3182 38.4318 23.1534 38.5909C22.9886 38.75 22.777 38.8821 22.5185 38.9872C22.2599 39.0923 21.9503 39.1449 21.5895 39.1449ZM21.8665 38.1222C22.2188 38.1222 22.5199 38.0526 22.7699 37.9134C23.0227 37.7741 23.2145 37.5923 23.3452 37.3679C23.4787 37.1406 23.5455 36.8977 23.5455 36.6392V35.7955C23.5 35.8409 23.4119 35.8835 23.2812 35.9233C23.1534 35.9602 23.0071 35.9929 22.8423 36.0213C22.6776 36.0469 22.517 36.071 22.3608 36.0938C22.2045 36.1136 22.0739 36.1307 21.9688 36.1449C21.7216 36.1761 21.4957 36.2287 21.2912 36.3026C21.0895 36.3764 20.9276 36.483 20.8054 36.6222C20.6861 36.7585 20.6264 36.9403 20.6264 37.1676C20.6264 37.483 20.7429 37.7216 20.9759 37.8835C21.2088 38.0426 21.5057 38.1222 21.8665 38.1222ZM26.5167 39V32.4545H27.7482V33.4943H27.8164C27.9357 33.142 28.146 32.8651 28.4471 32.6634C28.7511 32.4588 29.0948 32.3565 29.4783 32.3565C29.5579 32.3565 29.6516 32.3594 29.7596 32.3651C29.8704 32.3707 29.957 32.3778 30.0195 32.3864V33.6051C29.9684 33.5909 29.8775 33.5753 29.7468 33.5582C29.6161 33.5384 29.4854 33.5284 29.3548 33.5284C29.0536 33.5284 28.7852 33.5923 28.5494 33.7202C28.3164 33.8452 28.1317 34.0199 27.9954 34.2443C27.859 34.4659 27.7908 34.7187 27.7908 35.0028V39H26.5167ZM34.5643 32.4545V33.4773H30.989V32.4545H34.5643ZM31.9478 30.8864H33.2219V37.0781C33.2219 37.3253 33.2589 37.5114 33.3327 37.6364C33.4066 37.7585 33.5018 37.8423 33.6183 37.8878C33.7376 37.9304 33.8668 37.9517 34.006 37.9517C34.1083 37.9517 34.1978 37.9446 34.2745 37.9304C34.3512 37.9162 34.4109 37.9048 34.4535 37.8963L34.6836 38.9489C34.6097 38.9773 34.5046 39.0057 34.3683 39.0341C34.2319 39.0653 34.0614 39.0824 33.8569 39.0852C33.5217 39.0909 33.2092 39.0312 32.9194 38.9062C32.6296 38.7812 32.3952 38.5881 32.2163 38.3267C32.0373 38.0653 31.9478 37.7372 31.9478 37.3423V30.8864ZM36.2166 39V30.2727H41.6286V31.4062H37.5334V34.0653H41.2408V35.1946H37.5334V39H36.2166ZM43.1456 39V32.4545H44.4197V39H43.1456ZM43.7891 31.4446C43.5675 31.4446 43.3771 31.3707 43.218 31.223C43.0618 31.0724 42.9837 30.8935 42.9837 30.6861C42.9837 30.4759 43.0618 30.2969 43.218 30.1491C43.3771 29.9986 43.5675 29.9233 43.7891 29.9233C44.0107 29.9233 44.1996 29.9986 44.3558 30.1491C44.5149 30.2969 44.5945 30.4759 44.5945 30.6861C44.5945 30.8935 44.5149 31.0724 44.3558 31.223C44.1996 31.3707 44.0107 31.4446 43.7891 31.4446Z" fill="#848484"/>
</svg>
