<svg width="33" height="33" viewBox="0 0 33 33" fill="none" xmlns="http://www.w3.org/2000/svg">
<path d="M16.215 0.107651C16.8315 0.111799 17.3279 0.614925 17.3237 1.23142L17.3137 2.71975C17.3096 3.33624 16.8064 3.83264 16.1899 3.8285C15.5734 3.82435 15.077 3.32122 15.0812 2.70473L15.0912 1.21639C15.0954 0.599904 15.5985 0.103503 16.215 0.107651Z" fill="#4636FC"/>
<path fill-rule="evenodd" clip-rule="evenodd" d="M7.54937 16.0497C7.58117 11.3233 11.4385 7.51754 16.1649 7.54934C20.8913 7.58114 24.6971 11.4384 24.6653 16.1649C24.6335 20.8913 20.7762 24.697 16.0497 24.6652C11.3233 24.6334 7.51757 20.7761 7.54937 16.0497ZM16.1499 9.78185C12.6564 9.75835 9.80539 12.5713 9.78188 16.0647C9.75838 19.5582 12.5713 22.4092 16.0648 22.4327C19.5582 22.4562 22.4093 19.6433 22.4328 16.1498C22.4563 12.6564 19.6433 9.80536 16.1499 9.78185Z" fill="#4636FC"/>
<path d="M6.44863 4.72837C6.01564 4.28951 5.30887 4.28476 4.87001 4.71775C4.43115 5.15074 4.42639 5.85751 4.85939 6.29637L5.90472 7.35587C6.33771 7.79472 7.04448 7.79948 7.48334 7.36649C7.9222 6.9335 7.92695 6.22672 7.49396 5.78787L6.44863 4.72837Z" fill="#4636FC"/>
<path d="M32.107 16.2149C32.1028 16.8314 31.5997 17.3278 30.9832 17.3237L29.4949 17.3137C28.8784 17.3095 28.382 16.8064 28.3861 16.1899C28.3903 15.5734 28.8934 15.077 29.5099 15.0812L30.9982 15.0912C31.6147 15.0953 32.1111 15.5984 32.107 16.2149Z" fill="#4636FC"/>
<path d="M27.4862 6.4486C27.9251 6.01561 27.9298 5.30884 27.4969 4.86998C27.0639 4.43112 26.3571 4.42636 25.9182 4.85936L24.8587 5.90469C24.4199 6.33768 24.4151 7.04445 24.8481 7.48331C25.2811 7.92217 25.9879 7.92692 26.4267 7.49393L27.4862 6.4486Z" fill="#4636FC"/>
<path d="M16.0247 28.3861C16.6412 28.3902 17.1376 28.8934 17.1334 29.5098L17.1234 30.9982C17.1193 31.6147 16.6162 32.1111 15.9997 32.1069C15.3832 32.1028 14.8868 31.5997 14.8909 30.9832L14.9009 29.4948C14.9051 28.8783 15.4082 28.3819 16.0247 28.3861Z" fill="#4636FC"/>
<path d="M26.31 24.8587C25.877 24.4199 25.1702 24.4151 24.7314 24.8481C24.2925 25.2811 24.2878 25.9879 24.7208 26.4267L25.7661 27.4862C26.1991 27.9251 26.9059 27.9298 27.3447 27.4968C27.7836 27.0639 27.7883 26.3571 27.3553 25.9182L26.31 24.8587Z" fill="#4636FC"/>
<path d="M3.82853 16.0247C3.82438 16.6412 3.32125 17.1376 2.70476 17.1334L1.21642 17.1234C0.599934 17.1193 0.103533 16.6161 0.107681 15.9996C0.111829 15.3831 0.614955 14.8867 1.23145 14.8909L2.71978 14.9009C3.33627 14.9051 3.83267 15.4082 3.82853 16.0247Z" fill="#4636FC"/>
<path d="M7.35578 26.3099C7.79464 25.8769 7.7994 25.1701 7.36641 24.7313C6.93341 24.2924 6.22664 24.2876 5.78778 24.7206L4.72829 25.766C4.28943 26.199 4.28468 26.9057 4.71767 27.3446C5.15066 27.7835 5.85743 27.7882 6.29629 27.3552L7.35578 26.3099Z" fill="#4636FC"/>
</svg>
