<svg width="24" height="27" viewBox="0 0 24 27" fill="none" xmlns="http://www.w3.org/2000/svg">
<path d="M19.7549 3.3345C19.6482 3.3345 19.5415 3.3075 19.4482 3.2535C16.8877 1.917 14.6739 1.35 12.02 1.35C9.37946 1.35 6.87228 1.9845 4.59182 3.2535C4.27175 3.429 3.87167 3.3075 3.68497 2.9835C3.5116 2.6595 3.63162 2.241 3.95169 2.0655C6.43219 0.702 9.15275 0 12.02 0C14.8606 0 17.3411 0.6345 20.0617 2.052C20.3951 2.2275 20.5151 2.6325 20.3417 2.9565C20.2217 3.1995 19.995 3.3345 19.7549 3.3345ZM0.671016 10.422C0.537655 10.422 0.404295 10.3815 0.28427 10.3005C-0.0224595 10.0845 -0.0891399 9.666 0.124237 9.3555C1.44451 7.4655 3.12485 5.9805 5.12526 4.941C9.31278 2.754 14.6739 2.7405 18.8747 4.9275C20.8751 5.967 22.5555 7.4385 23.8758 9.315C24.0891 9.612 24.0225 10.044 23.7157 10.26C23.409 10.476 22.9956 10.4085 22.7822 10.098C21.582 8.397 20.0617 7.0605 18.2613 6.129C14.4338 4.1445 9.5395 4.1445 5.72538 6.1425C3.91168 7.0875 2.39137 8.4375 1.19112 10.1385C1.08443 10.3275 0.884393 10.422 0.671016 10.422ZM9.00605 26.7165C8.83269 26.7165 8.65932 26.649 8.53929 26.514C7.37906 25.3395 6.75226 24.5835 5.85874 22.95C4.93856 21.2895 4.45846 19.2645 4.45846 17.091C4.45846 13.0815 7.84582 9.8145 12.0067 9.8145C16.1675 9.8145 19.5549 13.0815 19.5549 17.091C19.5549 17.469 19.2615 17.766 18.8881 17.766C18.5147 17.766 18.2213 17.469 18.2213 17.091C18.2213 13.824 15.434 11.1645 12.0067 11.1645C8.5793 11.1645 5.79206 13.824 5.79206 17.091C5.79206 19.035 6.21882 20.8305 7.03232 22.2885C7.88583 23.841 8.47261 24.5025 9.49949 25.5555C9.75287 25.8255 9.75287 26.244 9.49949 26.514C9.35279 26.649 9.17942 26.7165 9.00605 26.7165ZM18.568 24.219C16.981 24.219 15.5807 23.814 14.4338 23.0175C12.4468 21.654 11.2598 19.44 11.2598 17.091C11.2598 16.713 11.5532 16.416 11.9267 16.416C12.3001 16.416 12.5935 16.713 12.5935 17.091C12.5935 18.9945 13.5537 20.79 15.1807 21.897C16.1275 22.545 17.2344 22.8555 18.568 22.8555C18.8881 22.8555 19.4215 22.815 19.955 22.7205C20.315 22.653 20.6618 22.896 20.7285 23.274C20.7951 23.6385 20.5551 23.9895 20.1817 24.057C19.4215 24.2055 18.7547 24.219 18.568 24.219ZM15.8875 27C15.8341 27 15.7674 26.9865 15.7141 26.973C13.5937 26.379 12.2067 25.5825 10.7531 24.138C8.88603 22.2615 7.85915 19.764 7.85915 17.091C7.85915 14.904 9.69953 13.122 11.9667 13.122C14.2338 13.122 16.0742 14.904 16.0742 17.091C16.0742 18.5355 17.3144 19.71 18.8481 19.71C20.3817 19.71 21.622 18.5355 21.622 17.091C21.622 12.0015 17.2877 7.8705 11.9533 7.8705C8.16588 7.8705 4.69851 10.0035 3.13819 13.311C2.61808 14.4045 2.35136 15.687 2.35136 17.091C2.35136 18.144 2.44471 19.8045 3.24488 21.9645C3.37824 22.3155 3.20487 22.707 2.85813 22.8285C2.51139 22.9635 2.12465 22.7745 2.00462 22.437C1.35115 20.6685 1.03109 18.9135 1.03109 17.091C1.03109 15.471 1.33782 13.9995 1.93794 12.717C3.71164 8.9505 7.64578 6.507 11.9533 6.507C18.0212 6.507 22.9556 11.2455 22.9556 17.0775C22.9556 19.2645 21.1152 21.0465 18.8481 21.0465C16.5809 21.0465 14.7406 19.2645 14.7406 17.0775C14.7406 15.633 13.5003 14.4585 11.9667 14.4585C10.433 14.4585 9.19276 15.633 9.19276 17.0775C9.19276 19.386 10.0729 21.546 11.6866 23.166C12.9535 24.435 14.1671 25.137 16.0475 25.6635C16.4076 25.758 16.6076 26.136 16.5143 26.487C16.4476 26.7975 16.1675 27 15.8875 27Z" fill="#4636FC"/>
</svg>
