<svg width="33" height="29" viewBox="0 0 33 29" fill="none" xmlns="http://www.w3.org/2000/svg">
<rect width="33" height="29" rx="6" fill="#CFCFCF" fill-opacity="0.2"/>
<path d="M19.875 24.0625L17.625 26.3125H15.375L13.125 24.0625V12.8125H19.875V17.3125L18.75 18.4375L19.875 19.5625V20.6875L18.75 21.8125L19.875 22.9375V24.0625Z" fill="#FFA000"/>
<path d="M24.375 5.3875C24.0938 4.375 23.25 3.64375 22.2937 3.3625C20.9437 3.08125 18.8625 2.6875 16.5 2.6875C14.1375 2.6875 12.0562 3.08125 10.7062 3.3625C9.75 3.64375 8.90625 4.375 8.625 5.3875C8.34375 6.34375 8.0625 7.69375 8.0625 9.15625C8.0625 10.6188 8.34375 11.9688 8.625 12.925C8.90625 13.9375 9.69375 14.6688 10.7062 14.8938C12.0562 15.2313 14.1375 15.625 16.5 15.625C18.8625 15.625 20.9437 15.2313 22.2937 14.95C23.3062 14.725 24.0938 13.9375 24.375 12.9813C24.6562 12.025 24.9375 10.675 24.9375 9.2125C24.9375 7.69375 24.6562 6.34375 24.375 5.3875V5.3875ZM19.3125 8.3125H13.6875C13.0687 8.3125 12.5625 7.80625 12.5625 7.1875V6.0625C12.5625 5.725 14.3062 5.5 16.5 5.5C18.6938 5.5 20.4375 5.725 20.4375 6.0625V7.1875C20.4375 7.80625 19.9313 8.3125 19.3125 8.3125Z" fill="#FFA000"/>
</svg>
