<svg width="38" height="35" viewBox="0 0 38 35" fill="none" xmlns="http://www.w3.org/2000/svg">
<rect width="38" height="35" rx="6" fill="#121212"/>
<path d="M15.1868 22.12C14.3308 22.12 13.5588 21.936 12.8708 21.568C12.1828 21.192 11.6428 20.676 11.2508 20.02C10.8588 19.356 10.6628 18.616 10.6628 17.8C10.6628 16.984 10.8588 16.248 11.2508 15.592C11.6428 14.928 12.1828 14.412 12.8708 14.044C13.5588 13.668 14.3308 13.48 15.1868 13.48C16.0428 13.48 16.8148 13.668 17.5028 14.044C18.1908 14.412 18.7308 14.924 19.1228 15.58C19.5148 16.236 19.7108 16.976 19.7108 17.8C19.7108 18.624 19.5148 19.364 19.1228 20.02C18.7308 20.676 18.1908 21.192 17.5028 21.568C16.8148 21.936 16.0428 22.12 15.1868 22.12ZM15.1868 20.752C15.7468 20.752 16.2508 20.628 16.6988 20.38C17.1468 20.124 17.4988 19.772 17.7548 19.324C18.0108 18.868 18.1388 18.36 18.1388 17.8C18.1388 17.24 18.0108 16.736 17.7548 16.288C17.4988 15.832 17.1468 15.48 16.6988 15.232C16.2508 14.976 15.7468 14.848 15.1868 14.848C14.6268 14.848 14.1228 14.976 13.6748 15.232C13.2268 15.48 12.8748 15.832 12.6188 16.288C12.3628 16.736 12.2348 17.24 12.2348 17.8C12.2348 18.36 12.3628 18.868 12.6188 19.324C12.8748 19.772 13.2268 20.124 13.6748 20.38C14.1228 20.628 14.6268 20.752 15.1868 20.752ZM23.8363 19.252L22.7203 20.308V22H21.2203V13.096H22.7203V18.472L25.8283 15.592H27.6283L24.9523 18.28L27.8803 22H26.0563L23.8363 19.252Z" fill="#407DFF"/>
</svg>
