<svg width="49" height="42" viewBox="0 0 49 42" fill="none" xmlns="http://www.w3.org/2000/svg">
<path d="M17.75 4.75C17.75 4.12868 18.2537 3.625 18.875 3.625H21.125C21.7463 3.625 22.25 4.12868 22.25 4.75V5.38988C22.25 5.87116 22.573 6.28928 23.0175 6.47382C23.4621 6.65843 23.9799 6.58807 24.3203 6.24763L24.7729 5.79502C25.2123 5.35568 25.9246 5.35568 26.3639 5.79502L27.9549 7.38601C28.3942 7.82535 28.3942 8.53766 27.9549 8.977L27.5024 9.42955C27.1619 9.77001 27.0915 10.2878 27.2762 10.7325C27.4607 11.177 27.8789 11.5 28.3602 11.5L29 11.5C29.6213 11.5 30.125 12.0037 30.125 12.625V14.875C30.125 15.4963 29.6213 16 29 16H28.3601C27.8789 16 27.4607 16.323 27.2762 16.7675C27.0916 17.2122 27.1619 17.7299 27.5024 18.0704L27.9549 18.5229C28.3943 18.9623 28.3943 19.6746 27.9549 20.1139L26.3639 21.7049C25.9246 22.1443 25.2123 22.1443 24.7729 21.7049L24.3204 21.2524C23.9799 20.9119 23.4622 20.8416 23.0175 21.0262C22.573 21.2107 22.25 21.6289 22.25 22.1101V22.75C22.25 23.3713 21.7463 23.875 21.125 23.875H18.875C18.2537 23.875 17.75 23.3713 17.75 22.75V22.1102C17.75 21.6289 17.427 21.2107 16.9825 21.0262C16.5378 20.8415 16.02 20.9119 15.6795 21.2524L15.227 21.7049C14.7876 22.1443 14.0753 22.1443 13.636 21.7049L12.045 20.1139C11.6057 19.6746 11.6057 18.9623 12.045 18.5229L12.4976 18.0703C12.8381 17.7299 12.9084 17.2121 12.7238 16.7675C12.5393 16.323 12.1212 16 11.6399 16H11C10.3787 16 9.875 15.4963 9.875 14.875V12.625C9.875 12.0037 10.3787 11.5 11 11.5L11.6399 11.5C12.1212 11.5 12.5393 11.177 12.7238 10.7325C12.9084 10.2878 12.8381 9.77007 12.4976 9.42962L12.045 8.97701C11.6057 8.53767 11.6057 7.82536 12.045 7.38602L13.636 5.79503C14.0754 5.35569 14.7877 5.35569 15.227 5.79503L15.6796 6.24764C16.0201 6.58809 16.5378 6.65845 16.9825 6.47383C17.427 6.28928 17.75 5.87115 17.75 5.38986V4.75Z" stroke="#848484" stroke-width="1.5"/>
<path d="M22.25 13.75C22.25 14.9926 21.2426 16 20 16C18.7574 16 17.75 14.9926 17.75 13.75C17.75 12.5074 18.7574 11.5 20 11.5C21.2426 11.5 22.25 12.5074 22.25 13.75Z" stroke="#848484" stroke-width="1.5"/>
<path d="M6.21875 32.3153C6.1733 31.9119 5.9858 31.5994 5.65625 31.3778C5.3267 31.1534 4.91193 31.0412 4.41193 31.0412C4.05398 31.0412 3.74432 31.098 3.48295 31.2116C3.22159 31.3224 3.01847 31.4759 2.87358 31.6719C2.73153 31.8651 2.66051 32.0852 2.66051 32.3324C2.66051 32.5398 2.70881 32.7187 2.8054 32.8693C2.90483 33.0199 3.03409 33.1463 3.19318 33.2486C3.35511 33.348 3.52841 33.4318 3.71307 33.5C3.89773 33.5653 4.07528 33.6193 4.24574 33.6619L5.09801 33.8835C5.37642 33.9517 5.66193 34.044 5.95455 34.1605C6.24716 34.277 6.51847 34.4304 6.76847 34.6207C7.01847 34.8111 7.22017 35.0469 7.37358 35.3281C7.52983 35.6094 7.60795 35.946 7.60795 36.3381C7.60795 36.8324 7.48011 37.2713 7.22443 37.6548C6.97159 38.0384 6.60369 38.3409 6.12074 38.5625C5.64063 38.7841 5.05966 38.8949 4.37784 38.8949C3.72443 38.8949 3.15909 38.7912 2.68182 38.5838C2.20455 38.3764 1.83097 38.0824 1.56108 37.7017C1.29119 37.3182 1.14205 36.8636 1.11364 36.3381H2.43466C2.46023 36.6534 2.5625 36.9162 2.74148 37.1264C2.9233 37.3338 3.15483 37.4886 3.43608 37.5909C3.72017 37.6903 4.03125 37.7401 4.36932 37.7401C4.74148 37.7401 5.07244 37.6818 5.36222 37.5653C5.65483 37.446 5.88494 37.2812 6.05256 37.071C6.22017 36.858 6.30398 36.6094 6.30398 36.3253C6.30398 36.0668 6.23011 35.8551 6.08239 35.6903C5.9375 35.5256 5.74006 35.3892 5.49006 35.2812C5.2429 35.1733 4.96307 35.0781 4.65057 34.9957L3.61932 34.7145C2.92045 34.5241 2.36648 34.2443 1.95739 33.875C1.55114 33.5057 1.34801 33.017 1.34801 32.4091C1.34801 31.9062 1.48438 31.4673 1.7571 31.0923C2.02983 30.7173 2.39915 30.4261 2.86506 30.2188C3.33097 30.0085 3.85653 29.9034 4.44176 29.9034C5.03267 29.9034 5.55398 30.0071 6.00568 30.2145C6.46023 30.4219 6.81818 30.7074 7.07955 31.071C7.34091 31.4318 7.47727 31.8466 7.48864 32.3153H6.21875ZM11.9002 38.8821C11.2553 38.8821 10.6999 38.7443 10.234 38.4688C9.77095 38.1903 9.413 37.7997 9.16016 37.2969C8.91016 36.7912 8.78516 36.1989 8.78516 35.5199C8.78516 34.8494 8.91016 34.2585 9.16016 33.7472C9.413 33.2358 9.76527 32.8366 10.217 32.5497C10.6715 32.2628 11.2028 32.1193 11.8107 32.1193C12.18 32.1193 12.538 32.1804 12.8846 32.3026C13.2312 32.4247 13.5423 32.6165 13.8178 32.8778C14.0934 33.1392 14.3107 33.4787 14.4698 33.8963C14.6289 34.3111 14.7085 34.8153 14.7085 35.4091V35.8608H9.50533V34.9062H13.4599C13.4599 34.571 13.3917 34.2741 13.2553 34.0156C13.119 33.7543 12.9272 33.5483 12.68 33.3977C12.4357 33.2472 12.1488 33.1719 11.8192 33.1719C11.4613 33.1719 11.1488 33.2599 10.8817 33.4361C10.6175 33.6094 10.413 33.8366 10.2681 34.1179C10.1261 34.3963 10.055 34.6989 10.055 35.0256V35.7713C10.055 36.2088 10.1317 36.581 10.2852 36.8878C10.4414 37.1946 10.6587 37.429 10.9371 37.5909C11.2156 37.75 11.5408 37.8295 11.913 37.8295C12.1545 37.8295 12.3746 37.7955 12.5735 37.7273C12.7724 37.6562 12.9442 37.5511 13.0891 37.4119C13.234 37.2727 13.3448 37.1009 13.4215 36.8963L14.6275 37.1136C14.5309 37.4687 14.3576 37.7798 14.1076 38.0469C13.8604 38.3111 13.5494 38.517 13.1744 38.6648C12.8022 38.8097 12.3775 38.8821 11.9002 38.8821ZM19.1776 32.2045V33.2273H15.6023V32.2045H19.1776ZM16.5611 30.6364H17.8352V36.8281C17.8352 37.0753 17.8722 37.2614 17.946 37.3864C18.0199 37.5085 18.1151 37.5923 18.2315 37.6378C18.3509 37.6804 18.4801 37.7017 18.6193 37.7017C18.7216 37.7017 18.8111 37.6946 18.8878 37.6804C18.9645 37.6662 19.0241 37.6548 19.0668 37.6463L19.2969 38.6989C19.223 38.7273 19.1179 38.7557 18.9815 38.7841C18.8452 38.8153 18.6747 38.8324 18.4702 38.8352C18.1349 38.8409 17.8224 38.7812 17.5327 38.6562C17.2429 38.5312 17.0085 38.3381 16.8295 38.0767C16.6506 37.8153 16.5611 37.4872 16.5611 37.0923V30.6364ZM23.6424 32.2045V33.2273H20.0671V32.2045H23.6424ZM21.0259 30.6364H22.3001V36.8281C22.3001 37.0753 22.337 37.2614 22.4109 37.3864C22.4847 37.5085 22.5799 37.5923 22.6964 37.6378C22.8157 37.6804 22.945 37.7017 23.0842 37.7017C23.1864 37.7017 23.2759 37.6946 23.3526 37.6804C23.4293 37.6662 23.489 37.6548 23.5316 37.6463L23.7617 38.6989C23.6879 38.7273 23.5827 38.7557 23.4464 38.7841C23.31 38.8153 23.1396 38.8324 22.935 38.8352C22.5998 38.8409 22.2873 38.7812 21.9975 38.6562C21.7077 38.5312 21.4734 38.3381 21.2944 38.0767C21.1154 37.8153 21.0259 37.4872 21.0259 37.0923V30.6364ZM25.0518 38.75V32.2045H26.326V38.75H25.0518ZM25.6953 31.1946C25.4737 31.1946 25.2834 31.1207 25.1243 30.973C24.968 30.8224 24.8899 30.6435 24.8899 30.4361C24.8899 30.2259 24.968 30.0469 25.1243 29.8991C25.2834 29.7486 25.4737 29.6733 25.6953 29.6733C25.9169 29.6733 26.1058 29.7486 26.2621 29.8991C26.4212 30.0469 26.5007 30.2259 26.5007 30.4361C26.5007 30.6435 26.4212 30.8224 26.2621 30.973C26.1058 31.1207 25.9169 31.1946 25.6953 31.1946ZM29.3143 34.8636V38.75H28.0401V32.2045H29.2631V33.2699H29.3441C29.4947 32.9233 29.7305 32.6449 30.0515 32.4347C30.3754 32.2244 30.783 32.1193 31.2745 32.1193C31.7205 32.1193 32.1112 32.2131 32.4464 32.4006C32.7816 32.5852 33.0415 32.8608 33.2262 33.2273C33.4109 33.5937 33.5032 34.0469 33.5032 34.5866V38.75H32.229V34.7401C32.229 34.2656 32.1055 33.8949 31.8583 33.6278C31.6112 33.358 31.2717 33.223 30.8398 33.223C30.5444 33.223 30.2816 33.2869 30.0515 33.4148C29.8242 33.5426 29.6438 33.7301 29.5103 33.9773C29.3796 34.2216 29.3143 34.517 29.3143 34.8636ZM37.9563 41.3409C37.4364 41.3409 36.989 41.2727 36.614 41.1364C36.2418 41 35.9379 40.8196 35.7021 40.5952C35.4663 40.3707 35.2901 40.125 35.1737 39.858L36.2688 39.4062C36.3455 39.5312 36.4478 39.6634 36.5756 39.8026C36.7063 39.9446 36.8825 40.0653 37.104 40.1648C37.3285 40.2642 37.6168 40.3139 37.9691 40.3139C38.4521 40.3139 38.8512 40.196 39.1665 39.9602C39.4819 39.7273 39.6396 39.3551 39.6396 38.8438V37.5568H39.5586C39.4819 37.696 39.3711 37.8509 39.2262 38.0213C39.0842 38.1918 38.8881 38.3395 38.6381 38.4645C38.3881 38.5895 38.0629 38.652 37.6623 38.652C37.1452 38.652 36.6793 38.5312 36.2646 38.2898C35.8526 38.0455 35.5259 37.6861 35.2844 37.2116C35.0458 36.7344 34.9265 36.1477 34.9265 35.4517C34.9265 34.7557 35.0444 34.1591 35.2802 33.6619C35.5188 33.1648 35.8455 32.7841 36.2603 32.5199C36.6751 32.2528 37.1452 32.1193 37.6708 32.1193C38.0771 32.1193 38.4052 32.1875 38.6552 32.3239C38.9052 32.4574 39.0998 32.6136 39.239 32.7926C39.381 32.9716 39.4904 33.1293 39.5671 33.2656H39.6609V32.2045H40.9094V38.8949C40.9094 39.4574 40.7788 39.919 40.5174 40.2798C40.256 40.6406 39.9023 40.9077 39.4563 41.081C39.0131 41.2543 38.5131 41.3409 37.9563 41.3409ZM37.9435 37.5952C38.31 37.5952 38.6197 37.5099 38.8725 37.3395C39.1282 37.1662 39.3214 36.919 39.4521 36.598C39.5856 36.2741 39.6523 35.8864 39.6523 35.4347C39.6523 34.9943 39.587 34.6065 39.4563 34.2713C39.3256 33.9361 39.1339 33.6747 38.881 33.4872C38.6282 33.2969 38.3157 33.2017 37.9435 33.2017C37.56 33.2017 37.2404 33.3011 36.9847 33.5C36.729 33.696 36.5359 33.9631 36.4052 34.3011C36.2773 34.6392 36.2134 35.017 36.2134 35.4347C36.2134 35.8636 36.2788 36.2401 36.4094 36.5639C36.5401 36.8878 36.7333 37.1406 36.989 37.3224C37.2475 37.5043 37.5657 37.5952 37.9435 37.5952ZM47.5231 33.8026L46.3683 34.0071C46.32 33.8594 46.2433 33.7187 46.1381 33.5852C46.0359 33.4517 45.8967 33.3423 45.7205 33.2571C45.5444 33.1719 45.3242 33.1293 45.06 33.1293C44.6992 33.1293 44.3981 33.2102 44.1566 33.3722C43.9151 33.5312 43.7944 33.7372 43.7944 33.9901C43.7944 34.2088 43.8754 34.3849 44.0373 34.5185C44.1992 34.652 44.4606 34.7614 44.8214 34.8466L45.8612 35.0852C46.4634 35.2244 46.9123 35.4389 47.2077 35.7287C47.5032 36.0185 47.6509 36.3949 47.6509 36.858C47.6509 37.25 47.5373 37.5994 47.31 37.9062C47.0856 38.2102 46.7717 38.4489 46.3683 38.6222C45.9677 38.7955 45.5032 38.8821 44.9748 38.8821C44.2418 38.8821 43.6438 38.7259 43.1808 38.4134C42.7177 38.098 42.4336 37.6506 42.3285 37.071L43.56 36.8835C43.6367 37.2045 43.7944 37.4474 44.033 37.6122C44.2717 37.7741 44.5827 37.8551 44.9663 37.8551C45.3839 37.8551 45.7177 37.7685 45.9677 37.5952C46.2177 37.419 46.3427 37.2045 46.3427 36.9517C46.3427 36.7472 46.266 36.5753 46.1126 36.4361C45.962 36.2969 45.7305 36.1918 45.418 36.1207L44.31 35.8778C43.6992 35.7386 43.2475 35.517 42.9549 35.2131C42.6651 34.9091 42.5202 34.5241 42.5202 34.0582C42.5202 33.6719 42.6282 33.3338 42.8441 33.044C43.06 32.7543 43.3583 32.5284 43.739 32.3665C44.1197 32.2017 44.5558 32.1193 45.0472 32.1193C45.7546 32.1193 46.3114 32.2727 46.7177 32.5795C47.1239 32.8835 47.3924 33.2912 47.5231 33.8026Z" fill="#848484"/>
</svg>
