<svg width="49" height="42" viewBox="0 0 49 42" fill="none" xmlns="http://www.w3.org/2000/svg">
<path d="M17.75 4.75C17.75 4.12868 18.2537 3.625 18.875 3.625H21.125C21.7463 3.625 22.25 4.12868 22.25 4.75V5.38988C22.25 5.87116 22.573 6.28928 23.0175 6.47382C23.4621 6.65843 23.9799 6.58807 24.3203 6.24763L24.7729 5.79502C25.2123 5.35568 25.9246 5.35568 26.3639 5.79502L27.9549 7.38601C28.3942 7.82535 28.3942 8.53766 27.9549 8.977L27.5024 9.42955C27.1619 9.77001 27.0915 10.2878 27.2762 10.7325C27.4607 11.177 27.8789 11.5 28.3602 11.5L29 11.5C29.6213 11.5 30.125 12.0037 30.125 12.625V14.875C30.125 15.4963 29.6213 16 29 16H28.3601C27.8789 16 27.4607 16.323 27.2762 16.7675C27.0916 17.2122 27.1619 17.7299 27.5024 18.0704L27.9549 18.5229C28.3943 18.9623 28.3943 19.6746 27.9549 20.1139L26.3639 21.7049C25.9246 22.1443 25.2123 22.1443 24.7729 21.7049L24.3204 21.2524C23.9799 20.9119 23.4622 20.8416 23.0175 21.0262C22.573 21.2107 22.25 21.6289 22.25 22.1101V22.75C22.25 23.3713 21.7463 23.875 21.125 23.875H18.875C18.2537 23.875 17.75 23.3713 17.75 22.75V22.1102C17.75 21.6289 17.427 21.2107 16.9825 21.0262C16.5378 20.8415 16.02 20.9119 15.6795 21.2524L15.227 21.7049C14.7876 22.1443 14.0753 22.1443 13.636 21.7049L12.045 20.1139C11.6057 19.6746 11.6057 18.9623 12.045 18.5229L12.4976 18.0703C12.8381 17.7299 12.9084 17.2121 12.7238 16.7675C12.5393 16.323 12.1212 16 11.6399 16H11C10.3787 16 9.875 15.4963 9.875 14.875V12.625C9.875 12.0037 10.3787 11.5 11 11.5L11.6399 11.5C12.1212 11.5 12.5393 11.177 12.7238 10.7325C12.9084 10.2878 12.8381 9.77007 12.4976 9.42962L12.045 8.97701C11.6057 8.53767 11.6057 7.82536 12.045 7.38602L13.636 5.79503C14.0754 5.35569 14.7877 5.35569 15.227 5.79503L15.6796 6.24764C16.0201 6.58809 16.5378 6.65845 16.9825 6.47383C17.427 6.28928 17.75 5.87115 17.75 5.38986V4.75Z" stroke="#2444D6" stroke-width="1.5"/>
<path d="M22.25 13.75C22.25 14.9926 21.2426 16 20 16C18.7574 16 17.75 14.9926 17.75 13.75C17.75 12.5074 18.7574 11.5 20 11.5C21.2426 11.5 22.25 12.5074 22.25 13.75Z" stroke="#2444D6" stroke-width="1.5"/>
<path d="M6.21875 32.3153H7.48864C7.45028 30.9176 6.21449 29.9034 4.44176 29.9034C2.69034 29.9034 1.34801 30.9048 1.34801 32.4091C1.34801 33.6236 2.21733 34.3352 3.61932 34.7145L4.65057 34.9957C5.58381 35.2429 6.30398 35.5497 6.30398 36.3253C6.30398 37.1776 5.49006 37.7401 4.36932 37.7401C3.35511 37.7401 2.51136 37.2884 2.43466 36.3381H1.11364C1.19886 37.919 2.42188 38.8949 4.37784 38.8949C6.42756 38.8949 7.60795 37.8168 7.60795 36.3381C7.60795 34.7656 6.20597 34.1562 5.09801 33.8835L4.24574 33.6619C3.56392 33.4872 2.65625 33.1676 2.66051 32.3324C2.66051 31.5909 3.33807 31.0412 4.41193 31.0412C5.41335 31.0412 6.125 31.5099 6.21875 32.3153ZM11.9002 38.8821C13.3278 38.8821 14.3377 38.179 14.6275 37.1136L13.4215 36.8963C13.1914 37.5142 12.6374 37.8295 11.913 37.8295C10.8221 37.8295 10.0891 37.1222 10.055 35.8608H14.7085V35.4091C14.7085 33.044 13.2937 32.1193 11.8107 32.1193C9.98686 32.1193 8.78516 33.5085 8.78516 35.5199C8.78516 37.5526 9.96982 38.8821 11.9002 38.8821ZM10.0593 34.9062C10.1104 33.9773 10.7837 33.1719 11.8192 33.1719C12.8079 33.1719 13.4556 33.9048 13.4599 34.9062H10.0593ZM19.1776 32.2045H17.8352V30.6364H16.5611V32.2045H15.6023V33.2273H16.5611V37.0923C16.5568 38.2812 17.4645 38.8565 18.4702 38.8352C18.875 38.831 19.1477 38.7543 19.2969 38.6989L19.0668 37.6463C18.9815 37.6634 18.8239 37.7017 18.6193 37.7017C18.206 37.7017 17.8352 37.5653 17.8352 36.8281V33.2273H19.1776V32.2045ZM23.6424 32.2045H22.3001V30.6364H21.0259V32.2045H20.0671V33.2273H21.0259V37.0923C21.0217 38.2812 21.9293 38.8565 22.935 38.8352C23.3398 38.831 23.6126 38.7543 23.7617 38.6989L23.5316 37.6463C23.4464 37.6634 23.2887 37.7017 23.0842 37.7017C22.6708 37.7017 22.3001 37.5653 22.3001 36.8281V33.2273H23.6424V32.2045ZM25.0518 38.75H26.326V32.2045H25.0518V38.75ZM25.6953 31.1946C26.1342 31.1946 26.5007 30.8537 26.5007 30.4361C26.5007 30.0185 26.1342 29.6733 25.6953 29.6733C25.2521 29.6733 24.8899 30.0185 24.8899 30.4361C24.8899 30.8537 25.2521 31.1946 25.6953 31.1946ZM29.3143 34.8636C29.3143 33.8196 29.9535 33.223 30.8398 33.223C31.7049 33.223 32.229 33.7898 32.229 34.7401V38.75H33.5032V34.5866C33.5032 32.9673 32.6126 32.1193 31.2745 32.1193C30.2901 32.1193 29.6467 32.5753 29.3441 33.2699H29.2631V32.2045H28.0401V38.75H29.3143V34.8636ZM37.9563 41.3409C39.6225 41.3409 40.9094 40.5781 40.9094 38.8949V32.2045H39.6609V33.2656H39.5671C39.3413 32.8608 38.8896 32.1193 37.6708 32.1193C36.0898 32.1193 34.9265 33.3679 34.9265 35.4517C34.9265 37.5398 36.1154 38.652 37.6623 38.652C38.864 38.652 39.3285 37.9744 39.5586 37.5568H39.6396V38.8438C39.6396 39.8707 38.9364 40.3139 37.9691 40.3139C36.908 40.3139 36.4947 39.7812 36.2688 39.4062L35.1737 39.858C35.5188 40.6591 36.3924 41.3409 37.9563 41.3409ZM37.9435 37.5952C36.8058 37.5952 36.2134 36.7216 36.2134 35.4347C36.2134 34.1776 36.793 33.2017 37.9435 33.2017C39.0558 33.2017 39.6523 34.1094 39.6523 35.4347C39.6523 36.7855 39.043 37.5952 37.9435 37.5952ZM47.5231 33.8026C47.2589 32.7841 46.462 32.1193 45.0472 32.1193C43.5685 32.1193 42.5202 32.8991 42.5202 34.0582C42.5202 34.9872 43.0827 35.6051 44.31 35.8778L45.418 36.1207C46.0487 36.2614 46.3427 36.5426 46.3427 36.9517C46.3427 37.4588 45.8015 37.8551 44.9663 37.8551C44.2035 37.8551 43.7134 37.527 43.56 36.8835L42.3285 37.071C42.5415 38.2301 43.5046 38.8821 44.9748 38.8821C46.5558 38.8821 47.6509 38.0426 47.6509 36.858C47.6509 35.9332 47.0629 35.3622 45.8612 35.0852L44.8214 34.8466C44.1012 34.6761 43.7901 34.4332 43.7944 33.9901C43.7901 33.4872 44.3356 33.1293 45.06 33.1293C45.8526 33.1293 46.2191 33.5682 46.3683 34.0071L47.5231 33.8026Z" fill="#2444D6"/>
</svg>
