<svg width="85" height="36" viewBox="0 0 85 36" fill="none" xmlns="http://www.w3.org/2000/svg">
<path d="M0 8C0 3.58172 3.58172 0 8 0H77C81.4183 0 85 3.58172 85 8V28C85 32.4183 81.4183 36 77 36H8C3.58172 36 0 32.4183 0 28V8Z" fill="#E1E7FF" fill-opacity="0.53"/>
<path d="M16.5046 15.0898H18.4062C18.369 13.2468 16.7976 11.9418 14.4751 11.9418C12.1847 11.9418 10.4641 13.2308 10.4695 15.1591C10.4695 16.7251 11.5827 17.6254 13.3778 18.0888L14.619 18.4084C15.7962 18.7067 16.5739 19.0742 16.5792 19.9212C16.5739 20.8533 15.6896 21.4766 14.4006 21.4766C13.1648 21.4766 12.206 20.9226 12.1261 19.7773H10.1818C10.2617 21.9453 11.8757 23.1651 14.4165 23.1651C17.032 23.1651 18.5501 21.8601 18.5554 19.9371C18.5501 18.0462 16.9893 17.1832 15.3487 16.7944L14.326 16.5387C13.4311 16.3256 12.4616 15.9474 12.4723 15.0366C12.4776 14.2163 13.2127 13.6143 14.4485 13.6143C15.6257 13.6143 16.4034 14.163 16.5046 15.0898ZM22.1602 18.206C22.1602 17.0234 22.8953 16.3416 23.9287 16.3416C24.9408 16.3416 25.5374 16.9862 25.5374 18.0888V23H27.4656V17.7905C27.4656 15.8143 26.347 14.7116 24.6478 14.7116C23.3907 14.7116 22.5917 15.2816 22.2135 16.2085H22.1176V12.0909H20.232V23H22.1602V18.206ZM33.0001 23.1598C35.3971 23.1598 36.9205 21.4712 36.9205 18.9411C36.9205 16.4055 35.3971 14.7116 33.0001 14.7116C30.6031 14.7116 29.0796 16.4055 29.0796 18.9411C29.0796 21.4712 30.6031 23.1598 33.0001 23.1598ZM33.0107 21.6151C31.6844 21.6151 31.0345 20.4325 31.0345 18.9357C31.0345 17.4389 31.6844 16.2404 33.0107 16.2404C34.3158 16.2404 34.9656 17.4389 34.9656 18.9357C34.9656 20.4325 34.3158 21.6151 33.0107 21.6151ZM40.026 23H42.0395L43.5736 17.4709H43.6855L45.2195 23H47.2277L49.5448 14.8182H47.574L46.157 20.5391H46.0771L44.607 14.8182H42.6627L41.1926 20.571H41.118L39.6798 14.8182H37.7142L40.026 23ZM64.445 17.5455C64.445 14.0192 62.293 11.9418 59.4325 11.9418C56.5668 11.9418 54.4201 14.0192 54.4201 17.5455C54.4201 21.0664 56.5668 23.1491 59.4325 23.1491C60.125 23.1491 60.7749 23.0266 61.3661 22.7923L62.2663 23.9375H64.1839L62.6712 21.9986C63.7685 21.0398 64.445 19.5217 64.445 17.5455ZM58.7614 19.3352L60.2369 21.2741C59.9812 21.3434 59.7148 21.3754 59.4325 21.3754C57.6587 21.3754 56.407 20.0277 56.407 17.5455C56.407 15.0632 57.6587 13.7156 59.4325 13.7156C61.2116 13.7156 62.4581 15.0632 62.4581 17.5455C62.4581 18.8878 62.0959 19.8945 61.478 20.5391L60.5511 19.3352H58.7614ZM66.3279 23H68.3042V19.005H70.3176L72.459 23H74.6642L72.3045 18.6747C73.5882 18.158 74.2647 17.0607 74.2647 15.5799C74.2647 13.4972 72.9224 12.0909 70.4189 12.0909H66.3279V23ZM68.3042 17.3643V13.7422H70.1152C71.5907 13.7422 72.2512 14.4187 72.2512 15.5799C72.2512 16.7411 71.5907 17.3643 70.1259 17.3643H68.3042Z" fill="#1138EC"/>
</svg>
