<svg width="46" height="42" viewBox="0 0 46 42" fill="none" xmlns="http://www.w3.org/2000/svg">
<path d="M25.0625 10.6875L20.3375 15.4125L18.5375 12.7125L14.9375 16.3125" stroke="#34383D" stroke-width="1.5" stroke-linecap="round" stroke-linejoin="round"/>
<path d="M22.8125 10.6875H25.0625V12.9375" stroke="#34383D" stroke-width="1.5" stroke-linecap="round" stroke-linejoin="round"/>
<path d="M16.625 24.75H23.375C29 24.75 31.25 22.5 31.25 16.875V10.125C31.25 4.5 29 2.25 23.375 2.25H16.625C11 2.25 8.75 4.5 8.75 10.125V16.875C8.75 22.5 11 24.75 16.625 24.75Z" stroke="#34383D" stroke-width="1.5" stroke-linecap="round" stroke-linejoin="round"/>
<path d="M6.21875 32.5653H7.48864C7.45028 31.1676 6.21449 30.1534 4.44176 30.1534C2.69034 30.1534 1.34801 31.1548 1.34801 32.6591C1.34801 33.8736 2.21733 34.5852 3.61932 34.9645L4.65057 35.2457C5.58381 35.4929 6.30398 35.7997 6.30398 36.5753C6.30398 37.4276 5.49006 37.9901 4.36932 37.9901C3.35511 37.9901 2.51136 37.5384 2.43466 36.5881H1.11364C1.19886 38.169 2.42188 39.1449 4.37784 39.1449C6.42756 39.1449 7.60795 38.0668 7.60795 36.5881C7.60795 35.0156 6.20597 34.4062 5.09801 34.1335L4.24574 33.9119C3.56392 33.7372 2.65625 33.4176 2.66051 32.5824C2.66051 31.8409 3.33807 31.2912 4.41193 31.2912C5.41335 31.2912 6.125 31.7599 6.21875 32.5653ZM9.07919 39H10.3533V34.9645C10.3533 34.0824 10.9712 33.4688 11.6957 33.4688C12.4031 33.4688 12.8931 33.9375 12.8931 34.6491V39H14.163V34.8281C14.163 34.0398 14.6445 33.4688 15.4755 33.4688C16.1488 33.4688 16.7028 33.8438 16.7028 34.7301V39H17.9769V34.6108C17.9769 33.1151 17.1417 32.3693 15.957 32.3693C15.0153 32.3693 14.3079 32.821 13.9925 33.5199H13.9244C13.6388 32.804 13.038 32.3693 12.1644 32.3693C11.2994 32.3693 10.6559 32.7997 10.3832 33.5199H10.3022V32.4545H9.07919V39ZM21.5895 39.1449C22.6719 39.1449 23.2812 38.5952 23.5241 38.1051H23.5753V39H24.8196V34.6534C24.8196 32.7486 23.3196 32.3693 22.2798 32.3693C21.0952 32.3693 20.0043 32.8466 19.5781 34.0398L20.7756 34.3125C20.9631 33.848 21.4403 33.4006 22.2969 33.4006C23.1193 33.4006 23.5412 33.831 23.5412 34.5724V34.6023C23.5412 35.0668 23.0639 35.0582 21.8878 35.1946C20.6477 35.3395 19.3778 35.6634 19.3778 37.1506C19.3778 38.4375 20.3452 39.1449 21.5895 39.1449ZM21.8665 38.1222C21.1463 38.1222 20.6264 37.7983 20.6264 37.1676C20.6264 36.4858 21.2315 36.2429 21.9688 36.1449C22.3821 36.0895 23.3622 35.9787 23.5455 35.7955V36.6392C23.5455 37.4148 22.9276 38.1222 21.8665 38.1222ZM26.5167 39H27.7908V35.0028C27.7908 34.1463 28.4513 33.5284 29.3548 33.5284C29.619 33.5284 29.9173 33.5753 30.0195 33.6051V32.3864C29.8917 32.3693 29.6403 32.3565 29.4783 32.3565C28.7113 32.3565 28.055 32.7912 27.8164 33.4943H27.7482V32.4545H26.5167V39ZM34.5643 32.4545H33.2219V30.8864H31.9478V32.4545H30.989V33.4773H31.9478V37.3423C31.9435 38.5312 32.8512 39.1065 33.8569 39.0852C34.2617 39.081 34.5344 39.0043 34.6836 38.9489L34.4535 37.8963C34.3683 37.9134 34.2106 37.9517 34.006 37.9517C33.5927 37.9517 33.2219 37.8153 33.2219 37.0781V33.4773H34.5643V32.4545ZM36.2166 39H37.5334V35.1946H41.2408V34.0653H37.5334V31.4062H41.6286V30.2727H36.2166V39ZM43.1456 39H44.4197V32.4545H43.1456V39ZM43.7891 31.4446C44.228 31.4446 44.5945 31.1037 44.5945 30.6861C44.5945 30.2685 44.228 29.9233 43.7891 29.9233C43.3459 29.9233 42.9837 30.2685 42.9837 30.6861C42.9837 31.1037 43.3459 31.4446 43.7891 31.4446Z" fill="black"/>
</svg>
