<svg width="37" height="42" viewBox="0 0 37 42" fill="none" xmlns="http://www.w3.org/2000/svg">
<path fill-rule="evenodd" clip-rule="evenodd" d="M4.5 12.4054C4.5 7.23686 4.5 4.65258 5.78914 2.84094C6.20547 2.25585 6.70941 1.74132 7.28245 1.31623C9.05679 0 11.5879 0 16.65 0H19.35C24.4121 0 26.9432 0 28.7176 1.31623C29.2906 1.74132 29.7945 2.25585 30.2109 2.84094C30.9815 3.92396 31.2915 5.2831 31.4161 7.30541H28.125C25.7391 7.30541 23.805 9.28019 23.805 11.7162C23.805 14.1522 25.7391 16.127 28.125 16.127H31.473C31.4021 18.9394 31.1448 20.6574 30.2109 21.9699C29.7945 22.555 29.2906 23.0695 28.7176 23.4946C26.9432 24.8108 24.4121 24.8108 19.35 24.8108H16.65C11.5879 24.8108 9.05679 24.8108 7.28245 23.4946C6.70941 23.0695 6.20547 22.555 5.78914 21.9699C4.5 20.1582 4.5 17.574 4.5 12.4054ZM28.125 9.23514H31.4844C31.5 10.1705 31.5 11.22 31.5 12.4054C31.5 13.0406 31.5 13.6368 31.4976 14.1973H28.125C26.7829 14.1973 25.695 13.0865 25.695 11.7162C25.695 10.346 26.7829 9.23514 28.125 9.23514ZM10.845 17.3676C10.3231 17.3676 9.9 17.7996 9.9 18.3324C9.9 18.8653 10.3231 19.2973 10.845 19.2973H14.355C14.8769 19.2973 15.3 18.8653 15.3 18.3324C15.3 17.7996 14.8769 17.3676 14.355 17.3676H10.845Z" fill="#A5B2EC"/>
<path d="M3.16761 39L0.747159 30.2727H2.1321L3.83239 37.0312H3.91335L5.68182 30.2727H7.05398L8.82244 37.0355H8.90341L10.5994 30.2727H11.9886L9.56392 39H8.23864L6.40199 32.4631H6.33381L4.49716 39H3.16761ZM14.3473 39.1449C13.9325 39.1449 13.5575 39.0682 13.2223 38.9148C12.8871 38.7585 12.6214 38.5327 12.4254 38.2372C12.2322 37.9418 12.1357 37.5795 12.1357 37.1506C12.1357 36.7812 12.2067 36.4773 12.3487 36.2386C12.4908 36 12.6825 35.8111 12.924 35.6719C13.1655 35.5327 13.4354 35.4276 13.7337 35.3565C14.032 35.2855 14.3359 35.2315 14.6456 35.1946C15.0376 35.1491 15.3558 35.1122 15.6001 35.0838C15.8445 35.0526 16.022 35.0028 16.1328 34.9347C16.2436 34.8665 16.299 34.7557 16.299 34.6023V34.5724C16.299 34.2003 16.1939 33.9119 15.9837 33.7074C15.7763 33.5028 15.4666 33.4006 15.0547 33.4006C14.6257 33.4006 14.2876 33.4957 14.0405 33.6861C13.7962 33.8736 13.6271 34.0824 13.5334 34.3125L12.3359 34.0398C12.478 33.642 12.6854 33.321 12.9581 33.0767C13.2337 32.8295 13.5504 32.6506 13.9084 32.5398C14.2663 32.4261 14.6428 32.3693 15.0376 32.3693C15.299 32.3693 15.576 32.4006 15.8686 32.4631C16.1641 32.5227 16.4396 32.6335 16.6953 32.7955C16.9538 32.9574 17.1655 33.1889 17.3303 33.4901C17.495 33.7884 17.5774 34.1761 17.5774 34.6534V39H16.3331V38.1051H16.282C16.1996 38.2699 16.076 38.4318 15.9112 38.5909C15.7464 38.75 15.5348 38.8821 15.2763 38.9872C15.0178 39.0923 14.7081 39.1449 14.3473 39.1449ZM14.6243 38.1222C14.9766 38.1222 15.2777 38.0526 15.5277 37.9134C15.7805 37.7741 15.9723 37.5923 16.103 37.3679C16.2365 37.1406 16.3033 36.8977 16.3033 36.6392V35.7955C16.2578 35.8409 16.1697 35.8835 16.0391 35.9233C15.9112 35.9602 15.7649 35.9929 15.6001 36.0213C15.4354 36.0469 15.2749 36.071 15.1186 36.0938C14.9624 36.1136 14.8317 36.1307 14.7266 36.1449C14.4794 36.1761 14.2536 36.2287 14.049 36.3026C13.8473 36.3764 13.6854 36.483 13.5632 36.6222C13.4439 36.7585 13.3842 36.9403 13.3842 37.1676C13.3842 37.483 13.5007 37.7216 13.7337 37.8835C13.9666 38.0426 14.2635 38.1222 14.6243 38.1222ZM20.5487 30.2727V39H19.2745V30.2727H20.5487ZM23.5369 30.2727V39H22.2628V30.2727H23.5369ZM28.0721 39.1321C27.4272 39.1321 26.8718 38.9943 26.4059 38.7188C25.9428 38.4403 25.5849 38.0497 25.332 37.5469C25.082 37.0412 24.957 36.4489 24.957 35.7699C24.957 35.0994 25.082 34.5085 25.332 33.9972C25.5849 33.4858 25.9371 33.0866 26.3888 32.7997C26.8434 32.5128 27.3746 32.3693 27.9826 32.3693C28.3519 32.3693 28.7099 32.4304 29.0565 32.5526C29.4031 32.6747 29.7141 32.8665 29.9897 33.1278C30.2653 33.3892 30.4826 33.7287 30.6417 34.1463C30.8008 34.5611 30.8803 35.0653 30.8803 35.6591V36.1108H25.6772V35.1562H29.6317C29.6317 34.821 29.5636 34.5241 29.4272 34.2656C29.2908 34.0043 29.0991 33.7983 28.8519 33.6477C28.6076 33.4972 28.3207 33.4219 27.9911 33.4219C27.6332 33.4219 27.3207 33.5099 27.0536 33.6861C26.7894 33.8594 26.5849 34.0866 26.44 34.3679C26.2979 34.6463 26.2269 34.9489 26.2269 35.2756V36.0213C26.2269 36.4588 26.3036 36.831 26.457 37.1378C26.6133 37.4446 26.8306 37.679 27.109 37.8409C27.3874 38 27.7127 38.0795 28.0849 38.0795C28.3263 38.0795 28.5465 38.0455 28.7454 37.9773C28.9442 37.9062 29.1161 37.8011 29.261 37.6619C29.4059 37.5227 29.5167 37.3509 29.5934 37.1463L30.7994 37.3636C30.7028 37.7187 30.5295 38.0298 30.2795 38.2969C30.0323 38.5611 29.7212 38.767 29.3462 38.9148C28.9741 39.0597 28.5494 39.1321 28.0721 39.1321ZM35.3494 32.4545V33.4773H31.7741V32.4545H35.3494ZM32.733 30.8864H34.0071V37.0781C34.0071 37.3253 34.044 37.5114 34.1179 37.6364C34.1918 37.7585 34.2869 37.8423 34.4034 37.8878C34.5227 37.9304 34.652 37.9517 34.7912 37.9517C34.8935 37.9517 34.983 37.9446 35.0597 37.9304C35.1364 37.9162 35.196 37.9048 35.2386 37.8963L35.4688 38.9489C35.3949 38.9773 35.2898 39.0057 35.1534 39.0341C35.017 39.0653 34.8466 39.0824 34.642 39.0852C34.3068 39.0909 33.9943 39.0312 33.7045 38.9062C33.4148 38.7812 33.1804 38.5881 33.0014 38.3267C32.8224 38.0653 32.733 37.7372 32.733 37.3423V30.8864Z" fill="#A4AFE0"/>
</svg>
