<svg width="37" height="42" viewBox="0 0 37 42" fill="none" xmlns="http://www.w3.org/2000/svg">
<path fill-rule="evenodd" clip-rule="evenodd" d="M4.5 12.4054C4.5 7.23686 4.5 4.65258 5.78914 2.84094C6.20547 2.25585 6.70941 1.74132 7.28245 1.31623C9.05679 0 11.5879 0 16.65 0H19.35C24.4121 0 26.9432 0 28.7176 1.31623C29.2906 1.74132 29.7945 2.25585 30.2109 2.84094C30.9815 3.92396 31.2915 5.2831 31.4161 7.30541H28.125C25.7391 7.30541 23.805 9.28019 23.805 11.7162C23.805 14.1522 25.7391 16.127 28.125 16.127H31.473C31.4021 18.9394 31.1448 20.6574 30.2109 21.9699C29.7945 22.555 29.2906 23.0695 28.7176 23.4946C26.9432 24.8108 24.4121 24.8108 19.35 24.8108H16.65C11.5879 24.8108 9.05679 24.8108 7.28245 23.4946C6.70941 23.0695 6.20547 22.555 5.78914 21.9699C4.5 20.1582 4.5 17.574 4.5 12.4054ZM28.125 9.23513H31.4844C31.5 10.1705 31.5 11.22 31.5 12.4054C31.5 13.0406 31.5 13.6368 31.4976 14.1973H28.125C26.7829 14.1973 25.695 13.0865 25.695 11.7162C25.695 10.346 26.7829 9.23513 28.125 9.23513ZM10.845 17.3676C10.3231 17.3676 9.9 17.7996 9.9 18.3324C9.9 18.8653 10.3231 19.2973 10.845 19.2973H14.355C14.8769 19.2973 15.3 18.8653 15.3 18.3324C15.3 17.7996 14.8769 17.3676 14.355 17.3676H10.845Z" fill="#5170FD"/>
<path d="M3.16761 39H4.49716L6.33381 32.4631H6.40199L8.23864 39H9.56392L11.9886 30.2727H10.5994L8.90341 37.0355H8.82244L7.05398 30.2727H5.68182L3.91335 37.0312H3.83239L2.1321 30.2727H0.747159L3.16761 39ZM14.3473 39.1449C15.4297 39.1449 16.0391 38.5952 16.282 38.1051H16.3331V39H17.5774V34.6534C17.5774 32.7486 16.0774 32.3693 15.0376 32.3693C13.853 32.3693 12.7621 32.8466 12.3359 34.0398L13.5334 34.3125C13.7209 33.848 14.1982 33.4006 15.0547 33.4006C15.8771 33.4006 16.299 33.831 16.299 34.5724V34.6023C16.299 35.0668 15.8217 35.0582 14.6456 35.1946C13.4055 35.3395 12.1357 35.6634 12.1357 37.1506C12.1357 38.4375 13.103 39.1449 14.3473 39.1449ZM14.6243 38.1222C13.9041 38.1222 13.3842 37.7983 13.3842 37.1676C13.3842 36.4858 13.9893 36.2429 14.7266 36.1449C15.1399 36.0895 16.12 35.9787 16.3033 35.7955V36.6392C16.3033 37.4148 15.6854 38.1222 14.6243 38.1222ZM20.5487 30.2727H19.2745V39H20.5487V30.2727ZM23.5369 30.2727H22.2628V39H23.5369V30.2727ZM28.0721 39.1321C29.4996 39.1321 30.5096 38.429 30.7994 37.3636L29.5934 37.1463C29.3633 37.7642 28.8093 38.0795 28.0849 38.0795C26.994 38.0795 26.261 37.3722 26.2269 36.1108H30.8803V35.6591C30.8803 33.294 29.4656 32.3693 27.9826 32.3693C26.1587 32.3693 24.957 33.7585 24.957 35.7699C24.957 37.8026 26.1417 39.1321 28.0721 39.1321ZM26.2312 35.1562C26.2823 34.2273 26.9556 33.4219 27.9911 33.4219C28.9798 33.4219 29.6275 34.1548 29.6317 35.1562H26.2312ZM35.3494 32.4545H34.0071V30.8864H32.733V32.4545H31.7741V33.4773H32.733V37.3423C32.7287 38.5312 33.6364 39.1065 34.642 39.0852C35.0469 39.081 35.3196 39.0043 35.4688 38.9489L35.2386 37.8963C35.1534 37.9134 34.9957 37.9517 34.7912 37.9517C34.3778 37.9517 34.0071 37.8153 34.0071 37.0781V33.4773H35.3494V32.4545Z" fill="#2444D6"/>
</svg>
